G04 #@! TF.GenerationSoftware,KiCad,Pcbnew,5.1.9+dfsg1-1~bpo10+1*
G04 #@! TF.CreationDate,2021-11-07T18:13:51+00:00*
G04 #@! TF.ProjectId,MPPT_Solar_KiCAD,4d505054-5f53-46f6-9c61-725f4b694341,Rev. 2.1*
G04 #@! TF.SameCoordinates,Original*
G04 #@! TF.FileFunction,Soldermask,Bot*
G04 #@! TF.FilePolarity,Negative*
%FSLAX46Y46*%
G04 Gerber Fmt 4.6, Leading zero omitted, Abs format (unit mm)*
G04 Created by KiCad (PCBNEW 5.1.9+dfsg1-1~bpo10+1) date 2021-11-07 18:13:51*
%MOMM*%
%LPD*%
G01*
G04 APERTURE LIST*
%ADD10R,2.625000X2.625000*%
%ADD11C,2.625000*%
%ADD12C,3.200000*%
%ADD13C,1.000000*%
%ADD14C,1.500000*%
%ADD15O,1.700000X1.700000*%
%ADD16R,1.700000X1.700000*%
%ADD17C,0.800000*%
%ADD18C,6.400000*%
%ADD19C,4.000000*%
G04 APERTURE END LIST*
D10*
X26500000Y-74200000D03*
D11*
X26500000Y-69200000D03*
X26500000Y-64200000D03*
X26500000Y-59200000D03*
D12*
X31200000Y-42500000D03*
X31200000Y-50500000D03*
X24600000Y-79500000D03*
X24600000Y-87500000D03*
D13*
X74000000Y-75400000D03*
X76000000Y-75400000D03*
X72000000Y-75400000D03*
D14*
X89900000Y-54000000D03*
X89900000Y-50500000D03*
D15*
X93200000Y-93720000D03*
X93200000Y-91180000D03*
X93200000Y-88640000D03*
D16*
X93200000Y-86100000D03*
D17*
X92697056Y-42302944D03*
X91000000Y-41600000D03*
X89302944Y-42302944D03*
X88600000Y-44000000D03*
X89302944Y-45697056D03*
X91000000Y-46400000D03*
X92697056Y-45697056D03*
X93400000Y-44000000D03*
D18*
X91000000Y-44000000D03*
D17*
X92697056Y-99302944D03*
X91000000Y-98600000D03*
X89302944Y-99302944D03*
X88600000Y-101000000D03*
X89302944Y-102697056D03*
X91000000Y-103400000D03*
X92697056Y-102697056D03*
X93400000Y-101000000D03*
D18*
X91000000Y-101000000D03*
D17*
X20697056Y-99302944D03*
X19000000Y-98600000D03*
X17302944Y-99302944D03*
X16600000Y-101000000D03*
X17302944Y-102697056D03*
X19000000Y-103400000D03*
X20697056Y-102697056D03*
X21400000Y-101000000D03*
D18*
X19000000Y-101000000D03*
D17*
X20697056Y-42302944D03*
X19000000Y-41600000D03*
X17302944Y-42302944D03*
X16600000Y-44000000D03*
X17302944Y-45697056D03*
X19000000Y-46400000D03*
X20697056Y-45697056D03*
X21400000Y-44000000D03*
D18*
X19000000Y-44000000D03*
D15*
X82420000Y-42000000D03*
X79880000Y-42000000D03*
X77340000Y-42000000D03*
D16*
X74800000Y-42000000D03*
D19*
X63500000Y-73400000D03*
X35500000Y-73400000D03*
M02*
