G04 #@! TF.GenerationSoftware,KiCad,Pcbnew,5.1.9+dfsg1-1~bpo10+1*
G04 #@! TF.CreationDate,2021-11-07T18:13:51+00:00*
G04 #@! TF.ProjectId,MPPT_Solar_KiCAD,4d505054-5f53-46f6-9c61-725f4b694341,Rev. 2.1*
G04 #@! TF.SameCoordinates,Original*
G04 #@! TF.FileFunction,Soldermask,Top*
G04 #@! TF.FilePolarity,Negative*
%FSLAX46Y46*%
G04 Gerber Fmt 4.6, Leading zero omitted, Abs format (unit mm)*
G04 Created by KiCad (PCBNEW 5.1.9+dfsg1-1~bpo10+1) date 2021-11-07 18:13:51*
%MOMM*%
%LPD*%
G01*
G04 APERTURE LIST*
%ADD10R,2.625000X2.625000*%
%ADD11C,2.625000*%
%ADD12R,0.900000X0.800000*%
%ADD13R,0.600000X0.450000*%
%ADD14R,0.450000X0.600000*%
%ADD15C,3.200000*%
%ADD16R,1.524000X3.124200*%
%ADD17R,2.300000X2.500000*%
%ADD18R,0.800000X0.900000*%
%ADD19R,2.000000X1.500000*%
%ADD20R,2.000000X3.800000*%
%ADD21C,1.000000*%
%ADD22R,0.650000X1.060000*%
%ADD23R,1.270000X1.400000*%
%ADD24R,4.720000X4.800000*%
%ADD25R,1.450000X0.850000*%
%ADD26R,1.050000X0.850000*%
%ADD27R,3.750000X4.700000*%
%ADD28R,2.350000X5.650000*%
%ADD29R,1.060000X0.650000*%
%ADD30C,1.500000*%
%ADD31O,1.700000X1.700000*%
%ADD32R,1.700000X1.700000*%
%ADD33C,0.100000*%
%ADD34R,0.900000X1.400000*%
%ADD35R,2.000000X6.000000*%
%ADD36R,1.600000X1.000000*%
%ADD37C,0.800000*%
%ADD38C,6.400000*%
%ADD39R,5.650000X2.350000*%
%ADD40R,1.400000X1.200000*%
%ADD41R,1.000000X1.800000*%
%ADD42R,1.300000X0.900000*%
%ADD43C,4.000000*%
%ADD44R,8.000000X8.500000*%
G04 APERTURE END LIST*
G36*
G01*
X125050000Y-84445000D02*
X125050000Y-84145000D01*
G75*
G02*
X125200000Y-83995000I150000J0D01*
G01*
X126650000Y-83995000D01*
G75*
G02*
X126800000Y-84145000I0J-150000D01*
G01*
X126800000Y-84445000D01*
G75*
G02*
X126650000Y-84595000I-150000J0D01*
G01*
X125200000Y-84595000D01*
G75*
G02*
X125050000Y-84445000I0J150000D01*
G01*
G37*
G36*
G01*
X125050000Y-85715000D02*
X125050000Y-85415000D01*
G75*
G02*
X125200000Y-85265000I150000J0D01*
G01*
X126650000Y-85265000D01*
G75*
G02*
X126800000Y-85415000I0J-150000D01*
G01*
X126800000Y-85715000D01*
G75*
G02*
X126650000Y-85865000I-150000J0D01*
G01*
X125200000Y-85865000D01*
G75*
G02*
X125050000Y-85715000I0J150000D01*
G01*
G37*
G36*
G01*
X125050000Y-86985000D02*
X125050000Y-86685000D01*
G75*
G02*
X125200000Y-86535000I150000J0D01*
G01*
X126650000Y-86535000D01*
G75*
G02*
X126800000Y-86685000I0J-150000D01*
G01*
X126800000Y-86985000D01*
G75*
G02*
X126650000Y-87135000I-150000J0D01*
G01*
X125200000Y-87135000D01*
G75*
G02*
X125050000Y-86985000I0J150000D01*
G01*
G37*
G36*
G01*
X125050000Y-88255000D02*
X125050000Y-87955000D01*
G75*
G02*
X125200000Y-87805000I150000J0D01*
G01*
X126650000Y-87805000D01*
G75*
G02*
X126800000Y-87955000I0J-150000D01*
G01*
X126800000Y-88255000D01*
G75*
G02*
X126650000Y-88405000I-150000J0D01*
G01*
X125200000Y-88405000D01*
G75*
G02*
X125050000Y-88255000I0J150000D01*
G01*
G37*
G36*
G01*
X119900000Y-88255000D02*
X119900000Y-87955000D01*
G75*
G02*
X120050000Y-87805000I150000J0D01*
G01*
X121500000Y-87805000D01*
G75*
G02*
X121650000Y-87955000I0J-150000D01*
G01*
X121650000Y-88255000D01*
G75*
G02*
X121500000Y-88405000I-150000J0D01*
G01*
X120050000Y-88405000D01*
G75*
G02*
X119900000Y-88255000I0J150000D01*
G01*
G37*
G36*
G01*
X119900000Y-86985000D02*
X119900000Y-86685000D01*
G75*
G02*
X120050000Y-86535000I150000J0D01*
G01*
X121500000Y-86535000D01*
G75*
G02*
X121650000Y-86685000I0J-150000D01*
G01*
X121650000Y-86985000D01*
G75*
G02*
X121500000Y-87135000I-150000J0D01*
G01*
X120050000Y-87135000D01*
G75*
G02*
X119900000Y-86985000I0J150000D01*
G01*
G37*
G36*
G01*
X119900000Y-85715000D02*
X119900000Y-85415000D01*
G75*
G02*
X120050000Y-85265000I150000J0D01*
G01*
X121500000Y-85265000D01*
G75*
G02*
X121650000Y-85415000I0J-150000D01*
G01*
X121650000Y-85715000D01*
G75*
G02*
X121500000Y-85865000I-150000J0D01*
G01*
X120050000Y-85865000D01*
G75*
G02*
X119900000Y-85715000I0J150000D01*
G01*
G37*
G36*
G01*
X119900000Y-84445000D02*
X119900000Y-84145000D01*
G75*
G02*
X120050000Y-83995000I150000J0D01*
G01*
X121500000Y-83995000D01*
G75*
G02*
X121650000Y-84145000I0J-150000D01*
G01*
X121650000Y-84445000D01*
G75*
G02*
X121500000Y-84595000I-150000J0D01*
G01*
X120050000Y-84595000D01*
G75*
G02*
X119900000Y-84445000I0J150000D01*
G01*
G37*
G36*
G01*
X116600000Y-84445000D02*
X116600000Y-84145000D01*
G75*
G02*
X116750000Y-83995000I150000J0D01*
G01*
X118200000Y-83995000D01*
G75*
G02*
X118350000Y-84145000I0J-150000D01*
G01*
X118350000Y-84445000D01*
G75*
G02*
X118200000Y-84595000I-150000J0D01*
G01*
X116750000Y-84595000D01*
G75*
G02*
X116600000Y-84445000I0J150000D01*
G01*
G37*
G36*
G01*
X116600000Y-85715000D02*
X116600000Y-85415000D01*
G75*
G02*
X116750000Y-85265000I150000J0D01*
G01*
X118200000Y-85265000D01*
G75*
G02*
X118350000Y-85415000I0J-150000D01*
G01*
X118350000Y-85715000D01*
G75*
G02*
X118200000Y-85865000I-150000J0D01*
G01*
X116750000Y-85865000D01*
G75*
G02*
X116600000Y-85715000I0J150000D01*
G01*
G37*
G36*
G01*
X116600000Y-86985000D02*
X116600000Y-86685000D01*
G75*
G02*
X116750000Y-86535000I150000J0D01*
G01*
X118200000Y-86535000D01*
G75*
G02*
X118350000Y-86685000I0J-150000D01*
G01*
X118350000Y-86985000D01*
G75*
G02*
X118200000Y-87135000I-150000J0D01*
G01*
X116750000Y-87135000D01*
G75*
G02*
X116600000Y-86985000I0J150000D01*
G01*
G37*
G36*
G01*
X116600000Y-88255000D02*
X116600000Y-87955000D01*
G75*
G02*
X116750000Y-87805000I150000J0D01*
G01*
X118200000Y-87805000D01*
G75*
G02*
X118350000Y-87955000I0J-150000D01*
G01*
X118350000Y-88255000D01*
G75*
G02*
X118200000Y-88405000I-150000J0D01*
G01*
X116750000Y-88405000D01*
G75*
G02*
X116600000Y-88255000I0J150000D01*
G01*
G37*
G36*
G01*
X111450000Y-88255000D02*
X111450000Y-87955000D01*
G75*
G02*
X111600000Y-87805000I150000J0D01*
G01*
X113050000Y-87805000D01*
G75*
G02*
X113200000Y-87955000I0J-150000D01*
G01*
X113200000Y-88255000D01*
G75*
G02*
X113050000Y-88405000I-150000J0D01*
G01*
X111600000Y-88405000D01*
G75*
G02*
X111450000Y-88255000I0J150000D01*
G01*
G37*
G36*
G01*
X111450000Y-86985000D02*
X111450000Y-86685000D01*
G75*
G02*
X111600000Y-86535000I150000J0D01*
G01*
X113050000Y-86535000D01*
G75*
G02*
X113200000Y-86685000I0J-150000D01*
G01*
X113200000Y-86985000D01*
G75*
G02*
X113050000Y-87135000I-150000J0D01*
G01*
X111600000Y-87135000D01*
G75*
G02*
X111450000Y-86985000I0J150000D01*
G01*
G37*
G36*
G01*
X111450000Y-85715000D02*
X111450000Y-85415000D01*
G75*
G02*
X111600000Y-85265000I150000J0D01*
G01*
X113050000Y-85265000D01*
G75*
G02*
X113200000Y-85415000I0J-150000D01*
G01*
X113200000Y-85715000D01*
G75*
G02*
X113050000Y-85865000I-150000J0D01*
G01*
X111600000Y-85865000D01*
G75*
G02*
X111450000Y-85715000I0J150000D01*
G01*
G37*
G36*
G01*
X111450000Y-84445000D02*
X111450000Y-84145000D01*
G75*
G02*
X111600000Y-83995000I150000J0D01*
G01*
X113050000Y-83995000D01*
G75*
G02*
X113200000Y-84145000I0J-150000D01*
G01*
X113200000Y-84445000D01*
G75*
G02*
X113050000Y-84595000I-150000J0D01*
G01*
X111600000Y-84595000D01*
G75*
G02*
X111450000Y-84445000I0J150000D01*
G01*
G37*
D10*
X26500000Y-74200000D03*
D11*
X26500000Y-69200000D03*
X26500000Y-64200000D03*
X26500000Y-59200000D03*
G36*
G01*
X139145000Y-84505000D02*
X139145000Y-83955000D01*
G75*
G02*
X139345000Y-83755000I200000J0D01*
G01*
X139745000Y-83755000D01*
G75*
G02*
X139945000Y-83955000I0J-200000D01*
G01*
X139945000Y-84505000D01*
G75*
G02*
X139745000Y-84705000I-200000J0D01*
G01*
X139345000Y-84705000D01*
G75*
G02*
X139145000Y-84505000I0J200000D01*
G01*
G37*
G36*
G01*
X137495000Y-84505000D02*
X137495000Y-83955000D01*
G75*
G02*
X137695000Y-83755000I200000J0D01*
G01*
X138095000Y-83755000D01*
G75*
G02*
X138295000Y-83955000I0J-200000D01*
G01*
X138295000Y-84505000D01*
G75*
G02*
X138095000Y-84705000I-200000J0D01*
G01*
X137695000Y-84705000D01*
G75*
G02*
X137495000Y-84505000I0J200000D01*
G01*
G37*
D12*
X113800000Y-97600000D03*
X111800000Y-98550000D03*
X111800000Y-96650000D03*
D13*
X117720000Y-59570000D03*
X115620000Y-59570000D03*
X112670000Y-59570000D03*
X110570000Y-59570000D03*
X89750000Y-83400000D03*
X87650000Y-83400000D03*
D14*
X71800000Y-41250000D03*
X71800000Y-43350000D03*
G36*
G01*
X21924999Y-53800000D02*
X24075001Y-53800000D01*
G75*
G02*
X24325000Y-54049999I0J-249999D01*
G01*
X24325000Y-54675001D01*
G75*
G02*
X24075001Y-54925000I-249999J0D01*
G01*
X21924999Y-54925000D01*
G75*
G02*
X21675000Y-54675001I0J249999D01*
G01*
X21675000Y-54049999D01*
G75*
G02*
X21924999Y-53800000I249999J0D01*
G01*
G37*
G36*
G01*
X21924999Y-50875000D02*
X24075001Y-50875000D01*
G75*
G02*
X24325000Y-51124999I0J-249999D01*
G01*
X24325000Y-51750001D01*
G75*
G02*
X24075001Y-52000000I-249999J0D01*
G01*
X21924999Y-52000000D01*
G75*
G02*
X21675000Y-51750001I0J249999D01*
G01*
X21675000Y-51124999D01*
G75*
G02*
X21924999Y-50875000I249999J0D01*
G01*
G37*
D15*
X31200000Y-42500000D03*
X31200000Y-50500000D03*
D16*
X36153000Y-43375800D03*
X26247000Y-43375800D03*
X26247000Y-49624200D03*
X36153000Y-49624200D03*
D17*
X19000000Y-53850000D03*
X19000000Y-49550000D03*
G36*
G01*
X21524999Y-93412500D02*
X23675001Y-93412500D01*
G75*
G02*
X23925000Y-93662499I0J-249999D01*
G01*
X23925000Y-94287501D01*
G75*
G02*
X23675001Y-94537500I-249999J0D01*
G01*
X21524999Y-94537500D01*
G75*
G02*
X21275000Y-94287501I0J249999D01*
G01*
X21275000Y-93662499D01*
G75*
G02*
X21524999Y-93412500I249999J0D01*
G01*
G37*
G36*
G01*
X21524999Y-90487500D02*
X23675001Y-90487500D01*
G75*
G02*
X23925000Y-90737499I0J-249999D01*
G01*
X23925000Y-91362501D01*
G75*
G02*
X23675001Y-91612500I-249999J0D01*
G01*
X21524999Y-91612500D01*
G75*
G02*
X21275000Y-91362501I0J249999D01*
G01*
X21275000Y-90737499D01*
G75*
G02*
X21524999Y-90487500I249999J0D01*
G01*
G37*
D15*
X24600000Y-79500000D03*
X24600000Y-87500000D03*
D16*
X29553000Y-80375800D03*
X19647000Y-80375800D03*
X19647000Y-86624200D03*
X29553000Y-86624200D03*
D17*
X18600000Y-94850000D03*
X18600000Y-90550000D03*
G36*
G01*
X23325000Y-98825000D02*
X23875000Y-98825000D01*
G75*
G02*
X24075000Y-99025000I0J-200000D01*
G01*
X24075000Y-99425000D01*
G75*
G02*
X23875000Y-99625000I-200000J0D01*
G01*
X23325000Y-99625000D01*
G75*
G02*
X23125000Y-99425000I0J200000D01*
G01*
X23125000Y-99025000D01*
G75*
G02*
X23325000Y-98825000I200000J0D01*
G01*
G37*
G36*
G01*
X23325000Y-97175000D02*
X23875000Y-97175000D01*
G75*
G02*
X24075000Y-97375000I0J-200000D01*
G01*
X24075000Y-97775000D01*
G75*
G02*
X23875000Y-97975000I-200000J0D01*
G01*
X23325000Y-97975000D01*
G75*
G02*
X23125000Y-97775000I0J200000D01*
G01*
X23125000Y-97375000D01*
G75*
G02*
X23325000Y-97175000I200000J0D01*
G01*
G37*
D18*
X28300000Y-101500000D03*
X29250000Y-103500000D03*
X27350000Y-103500000D03*
G36*
G01*
X111425000Y-62550000D02*
X111425000Y-62050000D01*
G75*
G02*
X111650000Y-61825000I225000J0D01*
G01*
X112100000Y-61825000D01*
G75*
G02*
X112325000Y-62050000I0J-225000D01*
G01*
X112325000Y-62550000D01*
G75*
G02*
X112100000Y-62775000I-225000J0D01*
G01*
X111650000Y-62775000D01*
G75*
G02*
X111425000Y-62550000I0J225000D01*
G01*
G37*
G36*
G01*
X109875000Y-62550000D02*
X109875000Y-62050000D01*
G75*
G02*
X110100000Y-61825000I225000J0D01*
G01*
X110550000Y-61825000D01*
G75*
G02*
X110775000Y-62050000I0J-225000D01*
G01*
X110775000Y-62550000D01*
G75*
G02*
X110550000Y-62775000I-225000J0D01*
G01*
X110100000Y-62775000D01*
G75*
G02*
X109875000Y-62550000I0J225000D01*
G01*
G37*
D19*
X82050000Y-87300000D03*
X82050000Y-91900000D03*
X82050000Y-89600000D03*
D20*
X88350000Y-89600000D03*
G36*
G01*
X32350001Y-54200000D02*
X31049999Y-54200000D01*
G75*
G02*
X30800000Y-53950001I0J249999D01*
G01*
X30800000Y-53299999D01*
G75*
G02*
X31049999Y-53050000I249999J0D01*
G01*
X32350001Y-53050000D01*
G75*
G02*
X32600000Y-53299999I0J-249999D01*
G01*
X32600000Y-53950001D01*
G75*
G02*
X32350001Y-54200000I-249999J0D01*
G01*
G37*
G36*
G01*
X32350001Y-57150000D02*
X31049999Y-57150000D01*
G75*
G02*
X30800000Y-56900001I0J249999D01*
G01*
X30800000Y-56249999D01*
G75*
G02*
X31049999Y-56000000I249999J0D01*
G01*
X32350001Y-56000000D01*
G75*
G02*
X32600000Y-56249999I0J-249999D01*
G01*
X32600000Y-56900001D01*
G75*
G02*
X32350001Y-57150000I-249999J0D01*
G01*
G37*
G36*
G01*
X34750001Y-54200000D02*
X33449999Y-54200000D01*
G75*
G02*
X33200000Y-53950001I0J249999D01*
G01*
X33200000Y-53299999D01*
G75*
G02*
X33449999Y-53050000I249999J0D01*
G01*
X34750001Y-53050000D01*
G75*
G02*
X35000000Y-53299999I0J-249999D01*
G01*
X35000000Y-53950001D01*
G75*
G02*
X34750001Y-54200000I-249999J0D01*
G01*
G37*
G36*
G01*
X34750001Y-57150000D02*
X33449999Y-57150000D01*
G75*
G02*
X33200000Y-56900001I0J249999D01*
G01*
X33200000Y-56249999D01*
G75*
G02*
X33449999Y-56000000I249999J0D01*
G01*
X34750001Y-56000000D01*
G75*
G02*
X35000000Y-56249999I0J-249999D01*
G01*
X35000000Y-56900001D01*
G75*
G02*
X34750001Y-57150000I-249999J0D01*
G01*
G37*
G36*
G01*
X31987500Y-70250001D02*
X31987500Y-68949999D01*
G75*
G02*
X32237499Y-68700000I249999J0D01*
G01*
X32887501Y-68700000D01*
G75*
G02*
X33137500Y-68949999I0J-249999D01*
G01*
X33137500Y-70250001D01*
G75*
G02*
X32887501Y-70500000I-249999J0D01*
G01*
X32237499Y-70500000D01*
G75*
G02*
X31987500Y-70250001I0J249999D01*
G01*
G37*
G36*
G01*
X29037500Y-70250001D02*
X29037500Y-68949999D01*
G75*
G02*
X29287499Y-68700000I249999J0D01*
G01*
X29937501Y-68700000D01*
G75*
G02*
X30187500Y-68949999I0J-249999D01*
G01*
X30187500Y-70250001D01*
G75*
G02*
X29937501Y-70500000I-249999J0D01*
G01*
X29287499Y-70500000D01*
G75*
G02*
X29037500Y-70250001I0J249999D01*
G01*
G37*
G36*
G01*
X65800000Y-61650001D02*
X65800000Y-60349999D01*
G75*
G02*
X66049999Y-60100000I249999J0D01*
G01*
X66700001Y-60100000D01*
G75*
G02*
X66950000Y-60349999I0J-249999D01*
G01*
X66950000Y-61650001D01*
G75*
G02*
X66700001Y-61900000I-249999J0D01*
G01*
X66049999Y-61900000D01*
G75*
G02*
X65800000Y-61650001I0J249999D01*
G01*
G37*
G36*
G01*
X62850000Y-61650001D02*
X62850000Y-60349999D01*
G75*
G02*
X63099999Y-60100000I249999J0D01*
G01*
X63750001Y-60100000D01*
G75*
G02*
X64000000Y-60349999I0J-249999D01*
G01*
X64000000Y-61650001D01*
G75*
G02*
X63750001Y-61900000I-249999J0D01*
G01*
X63099999Y-61900000D01*
G75*
G02*
X62850000Y-61650001I0J249999D01*
G01*
G37*
G36*
G01*
X41100000Y-85849999D02*
X41100000Y-87150001D01*
G75*
G02*
X40850001Y-87400000I-249999J0D01*
G01*
X40199999Y-87400000D01*
G75*
G02*
X39950000Y-87150001I0J249999D01*
G01*
X39950000Y-85849999D01*
G75*
G02*
X40199999Y-85600000I249999J0D01*
G01*
X40850001Y-85600000D01*
G75*
G02*
X41100000Y-85849999I0J-249999D01*
G01*
G37*
G36*
G01*
X44050000Y-85849999D02*
X44050000Y-87150001D01*
G75*
G02*
X43800001Y-87400000I-249999J0D01*
G01*
X43149999Y-87400000D01*
G75*
G02*
X42900000Y-87150001I0J249999D01*
G01*
X42900000Y-85849999D01*
G75*
G02*
X43149999Y-85600000I249999J0D01*
G01*
X43800001Y-85600000D01*
G75*
G02*
X44050000Y-85849999I0J-249999D01*
G01*
G37*
G36*
G01*
X50900000Y-95849999D02*
X50900000Y-97150001D01*
G75*
G02*
X50650001Y-97400000I-249999J0D01*
G01*
X49999999Y-97400000D01*
G75*
G02*
X49750000Y-97150001I0J249999D01*
G01*
X49750000Y-95849999D01*
G75*
G02*
X49999999Y-95600000I249999J0D01*
G01*
X50650001Y-95600000D01*
G75*
G02*
X50900000Y-95849999I0J-249999D01*
G01*
G37*
G36*
G01*
X53850000Y-95849999D02*
X53850000Y-97150001D01*
G75*
G02*
X53600001Y-97400000I-249999J0D01*
G01*
X52949999Y-97400000D01*
G75*
G02*
X52700000Y-97150001I0J249999D01*
G01*
X52700000Y-95849999D01*
G75*
G02*
X52949999Y-95600000I249999J0D01*
G01*
X53600001Y-95600000D01*
G75*
G02*
X53850000Y-95849999I0J-249999D01*
G01*
G37*
G36*
G01*
X89175000Y-81025000D02*
X89175000Y-81575000D01*
G75*
G02*
X88975000Y-81775000I-200000J0D01*
G01*
X88575000Y-81775000D01*
G75*
G02*
X88375000Y-81575000I0J200000D01*
G01*
X88375000Y-81025000D01*
G75*
G02*
X88575000Y-80825000I200000J0D01*
G01*
X88975000Y-80825000D01*
G75*
G02*
X89175000Y-81025000I0J-200000D01*
G01*
G37*
G36*
G01*
X90825000Y-81025000D02*
X90825000Y-81575000D01*
G75*
G02*
X90625000Y-81775000I-200000J0D01*
G01*
X90225000Y-81775000D01*
G75*
G02*
X90025000Y-81575000I0J200000D01*
G01*
X90025000Y-81025000D01*
G75*
G02*
X90225000Y-80825000I200000J0D01*
G01*
X90625000Y-80825000D01*
G75*
G02*
X90825000Y-81025000I0J-200000D01*
G01*
G37*
G36*
G01*
X89175000Y-76825000D02*
X89175000Y-77375000D01*
G75*
G02*
X88975000Y-77575000I-200000J0D01*
G01*
X88575000Y-77575000D01*
G75*
G02*
X88375000Y-77375000I0J200000D01*
G01*
X88375000Y-76825000D01*
G75*
G02*
X88575000Y-76625000I200000J0D01*
G01*
X88975000Y-76625000D01*
G75*
G02*
X89175000Y-76825000I0J-200000D01*
G01*
G37*
G36*
G01*
X90825000Y-76825000D02*
X90825000Y-77375000D01*
G75*
G02*
X90625000Y-77575000I-200000J0D01*
G01*
X90225000Y-77575000D01*
G75*
G02*
X90025000Y-77375000I0J200000D01*
G01*
X90025000Y-76825000D01*
G75*
G02*
X90225000Y-76625000I200000J0D01*
G01*
X90625000Y-76625000D01*
G75*
G02*
X90825000Y-76825000I0J-200000D01*
G01*
G37*
G36*
G01*
X89175000Y-78925000D02*
X89175000Y-79475000D01*
G75*
G02*
X88975000Y-79675000I-200000J0D01*
G01*
X88575000Y-79675000D01*
G75*
G02*
X88375000Y-79475000I0J200000D01*
G01*
X88375000Y-78925000D01*
G75*
G02*
X88575000Y-78725000I200000J0D01*
G01*
X88975000Y-78725000D01*
G75*
G02*
X89175000Y-78925000I0J-200000D01*
G01*
G37*
G36*
G01*
X90825000Y-78925000D02*
X90825000Y-79475000D01*
G75*
G02*
X90625000Y-79675000I-200000J0D01*
G01*
X90225000Y-79675000D01*
G75*
G02*
X90025000Y-79475000I0J200000D01*
G01*
X90025000Y-78925000D01*
G75*
G02*
X90225000Y-78725000I200000J0D01*
G01*
X90625000Y-78725000D01*
G75*
G02*
X90825000Y-78925000I0J-200000D01*
G01*
G37*
D21*
X27400000Y-53600000D03*
X32900000Y-102600000D03*
X78200000Y-88100000D03*
X36300000Y-29300000D03*
X84400000Y-65400000D03*
D22*
X71600000Y-95300000D03*
X72550000Y-95300000D03*
X70650000Y-95300000D03*
X70650000Y-93100000D03*
X71600000Y-93100000D03*
X72550000Y-93100000D03*
G36*
G01*
X64575000Y-57850000D02*
X64575000Y-58350000D01*
G75*
G02*
X64350000Y-58575000I-225000J0D01*
G01*
X63900000Y-58575000D01*
G75*
G02*
X63675000Y-58350000I0J225000D01*
G01*
X63675000Y-57850000D01*
G75*
G02*
X63900000Y-57625000I225000J0D01*
G01*
X64350000Y-57625000D01*
G75*
G02*
X64575000Y-57850000I0J-225000D01*
G01*
G37*
G36*
G01*
X66125000Y-57850000D02*
X66125000Y-58350000D01*
G75*
G02*
X65900000Y-58575000I-225000J0D01*
G01*
X65450000Y-58575000D01*
G75*
G02*
X65225000Y-58350000I0J225000D01*
G01*
X65225000Y-57850000D01*
G75*
G02*
X65450000Y-57625000I225000J0D01*
G01*
X65900000Y-57625000D01*
G75*
G02*
X66125000Y-57850000I0J-225000D01*
G01*
G37*
G36*
G01*
X64575000Y-56250000D02*
X64575000Y-56750000D01*
G75*
G02*
X64350000Y-56975000I-225000J0D01*
G01*
X63900000Y-56975000D01*
G75*
G02*
X63675000Y-56750000I0J225000D01*
G01*
X63675000Y-56250000D01*
G75*
G02*
X63900000Y-56025000I225000J0D01*
G01*
X64350000Y-56025000D01*
G75*
G02*
X64575000Y-56250000I0J-225000D01*
G01*
G37*
G36*
G01*
X66125000Y-56250000D02*
X66125000Y-56750000D01*
G75*
G02*
X65900000Y-56975000I-225000J0D01*
G01*
X65450000Y-56975000D01*
G75*
G02*
X65225000Y-56750000I0J225000D01*
G01*
X65225000Y-56250000D01*
G75*
G02*
X65450000Y-56025000I225000J0D01*
G01*
X65900000Y-56025000D01*
G75*
G02*
X66125000Y-56250000I0J-225000D01*
G01*
G37*
G36*
G01*
X42625000Y-84450000D02*
X42625000Y-83950000D01*
G75*
G02*
X42850000Y-83725000I225000J0D01*
G01*
X43300000Y-83725000D01*
G75*
G02*
X43525000Y-83950000I0J-225000D01*
G01*
X43525000Y-84450000D01*
G75*
G02*
X43300000Y-84675000I-225000J0D01*
G01*
X42850000Y-84675000D01*
G75*
G02*
X42625000Y-84450000I0J225000D01*
G01*
G37*
G36*
G01*
X41075000Y-84450000D02*
X41075000Y-83950000D01*
G75*
G02*
X41300000Y-83725000I225000J0D01*
G01*
X41750000Y-83725000D01*
G75*
G02*
X41975000Y-83950000I0J-225000D01*
G01*
X41975000Y-84450000D01*
G75*
G02*
X41750000Y-84675000I-225000J0D01*
G01*
X41300000Y-84675000D01*
G75*
G02*
X41075000Y-84450000I0J225000D01*
G01*
G37*
G36*
G01*
X51175000Y-93850000D02*
X51175000Y-94350000D01*
G75*
G02*
X50950000Y-94575000I-225000J0D01*
G01*
X50500000Y-94575000D01*
G75*
G02*
X50275000Y-94350000I0J225000D01*
G01*
X50275000Y-93850000D01*
G75*
G02*
X50500000Y-93625000I225000J0D01*
G01*
X50950000Y-93625000D01*
G75*
G02*
X51175000Y-93850000I0J-225000D01*
G01*
G37*
G36*
G01*
X52725000Y-93850000D02*
X52725000Y-94350000D01*
G75*
G02*
X52500000Y-94575000I-225000J0D01*
G01*
X52050000Y-94575000D01*
G75*
G02*
X51825000Y-94350000I0J225000D01*
G01*
X51825000Y-93850000D01*
G75*
G02*
X52050000Y-93625000I225000J0D01*
G01*
X52500000Y-93625000D01*
G75*
G02*
X52725000Y-93850000I0J-225000D01*
G01*
G37*
G36*
G01*
X31525000Y-62350000D02*
X31525000Y-61850000D01*
G75*
G02*
X31750000Y-61625000I225000J0D01*
G01*
X32200000Y-61625000D01*
G75*
G02*
X32425000Y-61850000I0J-225000D01*
G01*
X32425000Y-62350000D01*
G75*
G02*
X32200000Y-62575000I-225000J0D01*
G01*
X31750000Y-62575000D01*
G75*
G02*
X31525000Y-62350000I0J225000D01*
G01*
G37*
G36*
G01*
X29975000Y-62350000D02*
X29975000Y-61850000D01*
G75*
G02*
X30200000Y-61625000I225000J0D01*
G01*
X30650000Y-61625000D01*
G75*
G02*
X30875000Y-61850000I0J-225000D01*
G01*
X30875000Y-62350000D01*
G75*
G02*
X30650000Y-62575000I-225000J0D01*
G01*
X30200000Y-62575000D01*
G75*
G02*
X29975000Y-62350000I0J225000D01*
G01*
G37*
G36*
G01*
X86625001Y-45200000D02*
X85374999Y-45200000D01*
G75*
G02*
X85125000Y-44950001I0J249999D01*
G01*
X85125000Y-44324999D01*
G75*
G02*
X85374999Y-44075000I249999J0D01*
G01*
X86625001Y-44075000D01*
G75*
G02*
X86875000Y-44324999I0J-249999D01*
G01*
X86875000Y-44950001D01*
G75*
G02*
X86625001Y-45200000I-249999J0D01*
G01*
G37*
G36*
G01*
X86625001Y-48125000D02*
X85374999Y-48125000D01*
G75*
G02*
X85125000Y-47875001I0J249999D01*
G01*
X85125000Y-47249999D01*
G75*
G02*
X85374999Y-47000000I249999J0D01*
G01*
X86625001Y-47000000D01*
G75*
G02*
X86875000Y-47249999I0J-249999D01*
G01*
X86875000Y-47875001D01*
G75*
G02*
X86625001Y-48125000I-249999J0D01*
G01*
G37*
G36*
G01*
X55350000Y-99875000D02*
X54850000Y-99875000D01*
G75*
G02*
X54625000Y-99650000I0J225000D01*
G01*
X54625000Y-99200000D01*
G75*
G02*
X54850000Y-98975000I225000J0D01*
G01*
X55350000Y-98975000D01*
G75*
G02*
X55575000Y-99200000I0J-225000D01*
G01*
X55575000Y-99650000D01*
G75*
G02*
X55350000Y-99875000I-225000J0D01*
G01*
G37*
G36*
G01*
X55350000Y-101425000D02*
X54850000Y-101425000D01*
G75*
G02*
X54625000Y-101200000I0J225000D01*
G01*
X54625000Y-100750000D01*
G75*
G02*
X54850000Y-100525000I225000J0D01*
G01*
X55350000Y-100525000D01*
G75*
G02*
X55575000Y-100750000I0J-225000D01*
G01*
X55575000Y-101200000D01*
G75*
G02*
X55350000Y-101425000I-225000J0D01*
G01*
G37*
G36*
G01*
X69375000Y-85925000D02*
X69375000Y-86475000D01*
G75*
G02*
X69175000Y-86675000I-200000J0D01*
G01*
X68775000Y-86675000D01*
G75*
G02*
X68575000Y-86475000I0J200000D01*
G01*
X68575000Y-85925000D01*
G75*
G02*
X68775000Y-85725000I200000J0D01*
G01*
X69175000Y-85725000D01*
G75*
G02*
X69375000Y-85925000I0J-200000D01*
G01*
G37*
G36*
G01*
X71025000Y-85925000D02*
X71025000Y-86475000D01*
G75*
G02*
X70825000Y-86675000I-200000J0D01*
G01*
X70425000Y-86675000D01*
G75*
G02*
X70225000Y-86475000I0J200000D01*
G01*
X70225000Y-85925000D01*
G75*
G02*
X70425000Y-85725000I200000J0D01*
G01*
X70825000Y-85725000D01*
G75*
G02*
X71025000Y-85925000I0J-200000D01*
G01*
G37*
D23*
X55535000Y-58660000D03*
D24*
X59340000Y-59700000D03*
D23*
X55535000Y-60740000D03*
D25*
X37950000Y-57895000D03*
X37950000Y-59165000D03*
X37950000Y-60435000D03*
X37950000Y-61705000D03*
D26*
X43650000Y-61705000D03*
X43650000Y-60435000D03*
X43650000Y-59165000D03*
X43650000Y-57895000D03*
D27*
X41250000Y-59800000D03*
D28*
X61400000Y-53550000D03*
X61400000Y-43850000D03*
G36*
G01*
X83925000Y-72975000D02*
X83925000Y-72425000D01*
G75*
G02*
X84125000Y-72225000I200000J0D01*
G01*
X84525000Y-72225000D01*
G75*
G02*
X84725000Y-72425000I0J-200000D01*
G01*
X84725000Y-72975000D01*
G75*
G02*
X84525000Y-73175000I-200000J0D01*
G01*
X84125000Y-73175000D01*
G75*
G02*
X83925000Y-72975000I0J200000D01*
G01*
G37*
G36*
G01*
X82275000Y-72975000D02*
X82275000Y-72425000D01*
G75*
G02*
X82475000Y-72225000I200000J0D01*
G01*
X82875000Y-72225000D01*
G75*
G02*
X83075000Y-72425000I0J-200000D01*
G01*
X83075000Y-72975000D01*
G75*
G02*
X82875000Y-73175000I-200000J0D01*
G01*
X82475000Y-73175000D01*
G75*
G02*
X82275000Y-72975000I0J200000D01*
G01*
G37*
D21*
X81900000Y-84200000D03*
G36*
G01*
X77500000Y-70800000D02*
X78825000Y-70800000D01*
G75*
G02*
X78900000Y-70875000I0J-75000D01*
G01*
X78900000Y-71025000D01*
G75*
G02*
X78825000Y-71100000I-75000J0D01*
G01*
X77500000Y-71100000D01*
G75*
G02*
X77425000Y-71025000I0J75000D01*
G01*
X77425000Y-70875000D01*
G75*
G02*
X77500000Y-70800000I75000J0D01*
G01*
G37*
G36*
G01*
X77500000Y-71300000D02*
X78825000Y-71300000D01*
G75*
G02*
X78900000Y-71375000I0J-75000D01*
G01*
X78900000Y-71525000D01*
G75*
G02*
X78825000Y-71600000I-75000J0D01*
G01*
X77500000Y-71600000D01*
G75*
G02*
X77425000Y-71525000I0J75000D01*
G01*
X77425000Y-71375000D01*
G75*
G02*
X77500000Y-71300000I75000J0D01*
G01*
G37*
G36*
G01*
X77500000Y-71800000D02*
X78825000Y-71800000D01*
G75*
G02*
X78900000Y-71875000I0J-75000D01*
G01*
X78900000Y-72025000D01*
G75*
G02*
X78825000Y-72100000I-75000J0D01*
G01*
X77500000Y-72100000D01*
G75*
G02*
X77425000Y-72025000I0J75000D01*
G01*
X77425000Y-71875000D01*
G75*
G02*
X77500000Y-71800000I75000J0D01*
G01*
G37*
G36*
G01*
X77500000Y-72300000D02*
X78825000Y-72300000D01*
G75*
G02*
X78900000Y-72375000I0J-75000D01*
G01*
X78900000Y-72525000D01*
G75*
G02*
X78825000Y-72600000I-75000J0D01*
G01*
X77500000Y-72600000D01*
G75*
G02*
X77425000Y-72525000I0J75000D01*
G01*
X77425000Y-72375000D01*
G75*
G02*
X77500000Y-72300000I75000J0D01*
G01*
G37*
G36*
G01*
X77500000Y-72800000D02*
X78825000Y-72800000D01*
G75*
G02*
X78900000Y-72875000I0J-75000D01*
G01*
X78900000Y-73025000D01*
G75*
G02*
X78825000Y-73100000I-75000J0D01*
G01*
X77500000Y-73100000D01*
G75*
G02*
X77425000Y-73025000I0J75000D01*
G01*
X77425000Y-72875000D01*
G75*
G02*
X77500000Y-72800000I75000J0D01*
G01*
G37*
G36*
G01*
X77500000Y-73300000D02*
X78825000Y-73300000D01*
G75*
G02*
X78900000Y-73375000I0J-75000D01*
G01*
X78900000Y-73525000D01*
G75*
G02*
X78825000Y-73600000I-75000J0D01*
G01*
X77500000Y-73600000D01*
G75*
G02*
X77425000Y-73525000I0J75000D01*
G01*
X77425000Y-73375000D01*
G75*
G02*
X77500000Y-73300000I75000J0D01*
G01*
G37*
G36*
G01*
X77500000Y-73800000D02*
X78825000Y-73800000D01*
G75*
G02*
X78900000Y-73875000I0J-75000D01*
G01*
X78900000Y-74025000D01*
G75*
G02*
X78825000Y-74100000I-75000J0D01*
G01*
X77500000Y-74100000D01*
G75*
G02*
X77425000Y-74025000I0J75000D01*
G01*
X77425000Y-73875000D01*
G75*
G02*
X77500000Y-73800000I75000J0D01*
G01*
G37*
G36*
G01*
X77500000Y-74300000D02*
X78825000Y-74300000D01*
G75*
G02*
X78900000Y-74375000I0J-75000D01*
G01*
X78900000Y-74525000D01*
G75*
G02*
X78825000Y-74600000I-75000J0D01*
G01*
X77500000Y-74600000D01*
G75*
G02*
X77425000Y-74525000I0J75000D01*
G01*
X77425000Y-74375000D01*
G75*
G02*
X77500000Y-74300000I75000J0D01*
G01*
G37*
G36*
G01*
X77500000Y-74800000D02*
X78825000Y-74800000D01*
G75*
G02*
X78900000Y-74875000I0J-75000D01*
G01*
X78900000Y-75025000D01*
G75*
G02*
X78825000Y-75100000I-75000J0D01*
G01*
X77500000Y-75100000D01*
G75*
G02*
X77425000Y-75025000I0J75000D01*
G01*
X77425000Y-74875000D01*
G75*
G02*
X77500000Y-74800000I75000J0D01*
G01*
G37*
G36*
G01*
X77500000Y-75300000D02*
X78825000Y-75300000D01*
G75*
G02*
X78900000Y-75375000I0J-75000D01*
G01*
X78900000Y-75525000D01*
G75*
G02*
X78825000Y-75600000I-75000J0D01*
G01*
X77500000Y-75600000D01*
G75*
G02*
X77425000Y-75525000I0J75000D01*
G01*
X77425000Y-75375000D01*
G75*
G02*
X77500000Y-75300000I75000J0D01*
G01*
G37*
G36*
G01*
X77500000Y-75800000D02*
X78825000Y-75800000D01*
G75*
G02*
X78900000Y-75875000I0J-75000D01*
G01*
X78900000Y-76025000D01*
G75*
G02*
X78825000Y-76100000I-75000J0D01*
G01*
X77500000Y-76100000D01*
G75*
G02*
X77425000Y-76025000I0J75000D01*
G01*
X77425000Y-75875000D01*
G75*
G02*
X77500000Y-75800000I75000J0D01*
G01*
G37*
G36*
G01*
X77500000Y-76300000D02*
X78825000Y-76300000D01*
G75*
G02*
X78900000Y-76375000I0J-75000D01*
G01*
X78900000Y-76525000D01*
G75*
G02*
X78825000Y-76600000I-75000J0D01*
G01*
X77500000Y-76600000D01*
G75*
G02*
X77425000Y-76525000I0J75000D01*
G01*
X77425000Y-76375000D01*
G75*
G02*
X77500000Y-76300000I75000J0D01*
G01*
G37*
G36*
G01*
X76675000Y-77125000D02*
X76825000Y-77125000D01*
G75*
G02*
X76900000Y-77200000I0J-75000D01*
G01*
X76900000Y-78525000D01*
G75*
G02*
X76825000Y-78600000I-75000J0D01*
G01*
X76675000Y-78600000D01*
G75*
G02*
X76600000Y-78525000I0J75000D01*
G01*
X76600000Y-77200000D01*
G75*
G02*
X76675000Y-77125000I75000J0D01*
G01*
G37*
G36*
G01*
X76175000Y-77125000D02*
X76325000Y-77125000D01*
G75*
G02*
X76400000Y-77200000I0J-75000D01*
G01*
X76400000Y-78525000D01*
G75*
G02*
X76325000Y-78600000I-75000J0D01*
G01*
X76175000Y-78600000D01*
G75*
G02*
X76100000Y-78525000I0J75000D01*
G01*
X76100000Y-77200000D01*
G75*
G02*
X76175000Y-77125000I75000J0D01*
G01*
G37*
G36*
G01*
X75675000Y-77125000D02*
X75825000Y-77125000D01*
G75*
G02*
X75900000Y-77200000I0J-75000D01*
G01*
X75900000Y-78525000D01*
G75*
G02*
X75825000Y-78600000I-75000J0D01*
G01*
X75675000Y-78600000D01*
G75*
G02*
X75600000Y-78525000I0J75000D01*
G01*
X75600000Y-77200000D01*
G75*
G02*
X75675000Y-77125000I75000J0D01*
G01*
G37*
G36*
G01*
X75175000Y-77125000D02*
X75325000Y-77125000D01*
G75*
G02*
X75400000Y-77200000I0J-75000D01*
G01*
X75400000Y-78525000D01*
G75*
G02*
X75325000Y-78600000I-75000J0D01*
G01*
X75175000Y-78600000D01*
G75*
G02*
X75100000Y-78525000I0J75000D01*
G01*
X75100000Y-77200000D01*
G75*
G02*
X75175000Y-77125000I75000J0D01*
G01*
G37*
G36*
G01*
X74675000Y-77125000D02*
X74825000Y-77125000D01*
G75*
G02*
X74900000Y-77200000I0J-75000D01*
G01*
X74900000Y-78525000D01*
G75*
G02*
X74825000Y-78600000I-75000J0D01*
G01*
X74675000Y-78600000D01*
G75*
G02*
X74600000Y-78525000I0J75000D01*
G01*
X74600000Y-77200000D01*
G75*
G02*
X74675000Y-77125000I75000J0D01*
G01*
G37*
G36*
G01*
X74175000Y-77125000D02*
X74325000Y-77125000D01*
G75*
G02*
X74400000Y-77200000I0J-75000D01*
G01*
X74400000Y-78525000D01*
G75*
G02*
X74325000Y-78600000I-75000J0D01*
G01*
X74175000Y-78600000D01*
G75*
G02*
X74100000Y-78525000I0J75000D01*
G01*
X74100000Y-77200000D01*
G75*
G02*
X74175000Y-77125000I75000J0D01*
G01*
G37*
G36*
G01*
X73675000Y-77125000D02*
X73825000Y-77125000D01*
G75*
G02*
X73900000Y-77200000I0J-75000D01*
G01*
X73900000Y-78525000D01*
G75*
G02*
X73825000Y-78600000I-75000J0D01*
G01*
X73675000Y-78600000D01*
G75*
G02*
X73600000Y-78525000I0J75000D01*
G01*
X73600000Y-77200000D01*
G75*
G02*
X73675000Y-77125000I75000J0D01*
G01*
G37*
G36*
G01*
X73175000Y-77125000D02*
X73325000Y-77125000D01*
G75*
G02*
X73400000Y-77200000I0J-75000D01*
G01*
X73400000Y-78525000D01*
G75*
G02*
X73325000Y-78600000I-75000J0D01*
G01*
X73175000Y-78600000D01*
G75*
G02*
X73100000Y-78525000I0J75000D01*
G01*
X73100000Y-77200000D01*
G75*
G02*
X73175000Y-77125000I75000J0D01*
G01*
G37*
G36*
G01*
X72675000Y-77125000D02*
X72825000Y-77125000D01*
G75*
G02*
X72900000Y-77200000I0J-75000D01*
G01*
X72900000Y-78525000D01*
G75*
G02*
X72825000Y-78600000I-75000J0D01*
G01*
X72675000Y-78600000D01*
G75*
G02*
X72600000Y-78525000I0J75000D01*
G01*
X72600000Y-77200000D01*
G75*
G02*
X72675000Y-77125000I75000J0D01*
G01*
G37*
G36*
G01*
X72175000Y-77125000D02*
X72325000Y-77125000D01*
G75*
G02*
X72400000Y-77200000I0J-75000D01*
G01*
X72400000Y-78525000D01*
G75*
G02*
X72325000Y-78600000I-75000J0D01*
G01*
X72175000Y-78600000D01*
G75*
G02*
X72100000Y-78525000I0J75000D01*
G01*
X72100000Y-77200000D01*
G75*
G02*
X72175000Y-77125000I75000J0D01*
G01*
G37*
G36*
G01*
X71675000Y-77125000D02*
X71825000Y-77125000D01*
G75*
G02*
X71900000Y-77200000I0J-75000D01*
G01*
X71900000Y-78525000D01*
G75*
G02*
X71825000Y-78600000I-75000J0D01*
G01*
X71675000Y-78600000D01*
G75*
G02*
X71600000Y-78525000I0J75000D01*
G01*
X71600000Y-77200000D01*
G75*
G02*
X71675000Y-77125000I75000J0D01*
G01*
G37*
G36*
G01*
X71175000Y-77125000D02*
X71325000Y-77125000D01*
G75*
G02*
X71400000Y-77200000I0J-75000D01*
G01*
X71400000Y-78525000D01*
G75*
G02*
X71325000Y-78600000I-75000J0D01*
G01*
X71175000Y-78600000D01*
G75*
G02*
X71100000Y-78525000I0J75000D01*
G01*
X71100000Y-77200000D01*
G75*
G02*
X71175000Y-77125000I75000J0D01*
G01*
G37*
G36*
G01*
X69175000Y-76300000D02*
X70500000Y-76300000D01*
G75*
G02*
X70575000Y-76375000I0J-75000D01*
G01*
X70575000Y-76525000D01*
G75*
G02*
X70500000Y-76600000I-75000J0D01*
G01*
X69175000Y-76600000D01*
G75*
G02*
X69100000Y-76525000I0J75000D01*
G01*
X69100000Y-76375000D01*
G75*
G02*
X69175000Y-76300000I75000J0D01*
G01*
G37*
G36*
G01*
X69175000Y-75800000D02*
X70500000Y-75800000D01*
G75*
G02*
X70575000Y-75875000I0J-75000D01*
G01*
X70575000Y-76025000D01*
G75*
G02*
X70500000Y-76100000I-75000J0D01*
G01*
X69175000Y-76100000D01*
G75*
G02*
X69100000Y-76025000I0J75000D01*
G01*
X69100000Y-75875000D01*
G75*
G02*
X69175000Y-75800000I75000J0D01*
G01*
G37*
G36*
G01*
X69175000Y-75300000D02*
X70500000Y-75300000D01*
G75*
G02*
X70575000Y-75375000I0J-75000D01*
G01*
X70575000Y-75525000D01*
G75*
G02*
X70500000Y-75600000I-75000J0D01*
G01*
X69175000Y-75600000D01*
G75*
G02*
X69100000Y-75525000I0J75000D01*
G01*
X69100000Y-75375000D01*
G75*
G02*
X69175000Y-75300000I75000J0D01*
G01*
G37*
G36*
G01*
X69175000Y-74800000D02*
X70500000Y-74800000D01*
G75*
G02*
X70575000Y-74875000I0J-75000D01*
G01*
X70575000Y-75025000D01*
G75*
G02*
X70500000Y-75100000I-75000J0D01*
G01*
X69175000Y-75100000D01*
G75*
G02*
X69100000Y-75025000I0J75000D01*
G01*
X69100000Y-74875000D01*
G75*
G02*
X69175000Y-74800000I75000J0D01*
G01*
G37*
G36*
G01*
X69175000Y-74300000D02*
X70500000Y-74300000D01*
G75*
G02*
X70575000Y-74375000I0J-75000D01*
G01*
X70575000Y-74525000D01*
G75*
G02*
X70500000Y-74600000I-75000J0D01*
G01*
X69175000Y-74600000D01*
G75*
G02*
X69100000Y-74525000I0J75000D01*
G01*
X69100000Y-74375000D01*
G75*
G02*
X69175000Y-74300000I75000J0D01*
G01*
G37*
G36*
G01*
X69175000Y-73800000D02*
X70500000Y-73800000D01*
G75*
G02*
X70575000Y-73875000I0J-75000D01*
G01*
X70575000Y-74025000D01*
G75*
G02*
X70500000Y-74100000I-75000J0D01*
G01*
X69175000Y-74100000D01*
G75*
G02*
X69100000Y-74025000I0J75000D01*
G01*
X69100000Y-73875000D01*
G75*
G02*
X69175000Y-73800000I75000J0D01*
G01*
G37*
G36*
G01*
X69175000Y-73300000D02*
X70500000Y-73300000D01*
G75*
G02*
X70575000Y-73375000I0J-75000D01*
G01*
X70575000Y-73525000D01*
G75*
G02*
X70500000Y-73600000I-75000J0D01*
G01*
X69175000Y-73600000D01*
G75*
G02*
X69100000Y-73525000I0J75000D01*
G01*
X69100000Y-73375000D01*
G75*
G02*
X69175000Y-73300000I75000J0D01*
G01*
G37*
G36*
G01*
X69175000Y-72800000D02*
X70500000Y-72800000D01*
G75*
G02*
X70575000Y-72875000I0J-75000D01*
G01*
X70575000Y-73025000D01*
G75*
G02*
X70500000Y-73100000I-75000J0D01*
G01*
X69175000Y-73100000D01*
G75*
G02*
X69100000Y-73025000I0J75000D01*
G01*
X69100000Y-72875000D01*
G75*
G02*
X69175000Y-72800000I75000J0D01*
G01*
G37*
G36*
G01*
X69175000Y-72300000D02*
X70500000Y-72300000D01*
G75*
G02*
X70575000Y-72375000I0J-75000D01*
G01*
X70575000Y-72525000D01*
G75*
G02*
X70500000Y-72600000I-75000J0D01*
G01*
X69175000Y-72600000D01*
G75*
G02*
X69100000Y-72525000I0J75000D01*
G01*
X69100000Y-72375000D01*
G75*
G02*
X69175000Y-72300000I75000J0D01*
G01*
G37*
G36*
G01*
X69175000Y-71800000D02*
X70500000Y-71800000D01*
G75*
G02*
X70575000Y-71875000I0J-75000D01*
G01*
X70575000Y-72025000D01*
G75*
G02*
X70500000Y-72100000I-75000J0D01*
G01*
X69175000Y-72100000D01*
G75*
G02*
X69100000Y-72025000I0J75000D01*
G01*
X69100000Y-71875000D01*
G75*
G02*
X69175000Y-71800000I75000J0D01*
G01*
G37*
G36*
G01*
X69175000Y-71300000D02*
X70500000Y-71300000D01*
G75*
G02*
X70575000Y-71375000I0J-75000D01*
G01*
X70575000Y-71525000D01*
G75*
G02*
X70500000Y-71600000I-75000J0D01*
G01*
X69175000Y-71600000D01*
G75*
G02*
X69100000Y-71525000I0J75000D01*
G01*
X69100000Y-71375000D01*
G75*
G02*
X69175000Y-71300000I75000J0D01*
G01*
G37*
G36*
G01*
X69175000Y-70800000D02*
X70500000Y-70800000D01*
G75*
G02*
X70575000Y-70875000I0J-75000D01*
G01*
X70575000Y-71025000D01*
G75*
G02*
X70500000Y-71100000I-75000J0D01*
G01*
X69175000Y-71100000D01*
G75*
G02*
X69100000Y-71025000I0J75000D01*
G01*
X69100000Y-70875000D01*
G75*
G02*
X69175000Y-70800000I75000J0D01*
G01*
G37*
G36*
G01*
X71175000Y-68800000D02*
X71325000Y-68800000D01*
G75*
G02*
X71400000Y-68875000I0J-75000D01*
G01*
X71400000Y-70200000D01*
G75*
G02*
X71325000Y-70275000I-75000J0D01*
G01*
X71175000Y-70275000D01*
G75*
G02*
X71100000Y-70200000I0J75000D01*
G01*
X71100000Y-68875000D01*
G75*
G02*
X71175000Y-68800000I75000J0D01*
G01*
G37*
G36*
G01*
X71675000Y-68800000D02*
X71825000Y-68800000D01*
G75*
G02*
X71900000Y-68875000I0J-75000D01*
G01*
X71900000Y-70200000D01*
G75*
G02*
X71825000Y-70275000I-75000J0D01*
G01*
X71675000Y-70275000D01*
G75*
G02*
X71600000Y-70200000I0J75000D01*
G01*
X71600000Y-68875000D01*
G75*
G02*
X71675000Y-68800000I75000J0D01*
G01*
G37*
G36*
G01*
X72175000Y-68800000D02*
X72325000Y-68800000D01*
G75*
G02*
X72400000Y-68875000I0J-75000D01*
G01*
X72400000Y-70200000D01*
G75*
G02*
X72325000Y-70275000I-75000J0D01*
G01*
X72175000Y-70275000D01*
G75*
G02*
X72100000Y-70200000I0J75000D01*
G01*
X72100000Y-68875000D01*
G75*
G02*
X72175000Y-68800000I75000J0D01*
G01*
G37*
G36*
G01*
X72675000Y-68800000D02*
X72825000Y-68800000D01*
G75*
G02*
X72900000Y-68875000I0J-75000D01*
G01*
X72900000Y-70200000D01*
G75*
G02*
X72825000Y-70275000I-75000J0D01*
G01*
X72675000Y-70275000D01*
G75*
G02*
X72600000Y-70200000I0J75000D01*
G01*
X72600000Y-68875000D01*
G75*
G02*
X72675000Y-68800000I75000J0D01*
G01*
G37*
G36*
G01*
X73175000Y-68800000D02*
X73325000Y-68800000D01*
G75*
G02*
X73400000Y-68875000I0J-75000D01*
G01*
X73400000Y-70200000D01*
G75*
G02*
X73325000Y-70275000I-75000J0D01*
G01*
X73175000Y-70275000D01*
G75*
G02*
X73100000Y-70200000I0J75000D01*
G01*
X73100000Y-68875000D01*
G75*
G02*
X73175000Y-68800000I75000J0D01*
G01*
G37*
G36*
G01*
X73675000Y-68800000D02*
X73825000Y-68800000D01*
G75*
G02*
X73900000Y-68875000I0J-75000D01*
G01*
X73900000Y-70200000D01*
G75*
G02*
X73825000Y-70275000I-75000J0D01*
G01*
X73675000Y-70275000D01*
G75*
G02*
X73600000Y-70200000I0J75000D01*
G01*
X73600000Y-68875000D01*
G75*
G02*
X73675000Y-68800000I75000J0D01*
G01*
G37*
G36*
G01*
X74175000Y-68800000D02*
X74325000Y-68800000D01*
G75*
G02*
X74400000Y-68875000I0J-75000D01*
G01*
X74400000Y-70200000D01*
G75*
G02*
X74325000Y-70275000I-75000J0D01*
G01*
X74175000Y-70275000D01*
G75*
G02*
X74100000Y-70200000I0J75000D01*
G01*
X74100000Y-68875000D01*
G75*
G02*
X74175000Y-68800000I75000J0D01*
G01*
G37*
G36*
G01*
X74675000Y-68800000D02*
X74825000Y-68800000D01*
G75*
G02*
X74900000Y-68875000I0J-75000D01*
G01*
X74900000Y-70200000D01*
G75*
G02*
X74825000Y-70275000I-75000J0D01*
G01*
X74675000Y-70275000D01*
G75*
G02*
X74600000Y-70200000I0J75000D01*
G01*
X74600000Y-68875000D01*
G75*
G02*
X74675000Y-68800000I75000J0D01*
G01*
G37*
G36*
G01*
X75175000Y-68800000D02*
X75325000Y-68800000D01*
G75*
G02*
X75400000Y-68875000I0J-75000D01*
G01*
X75400000Y-70200000D01*
G75*
G02*
X75325000Y-70275000I-75000J0D01*
G01*
X75175000Y-70275000D01*
G75*
G02*
X75100000Y-70200000I0J75000D01*
G01*
X75100000Y-68875000D01*
G75*
G02*
X75175000Y-68800000I75000J0D01*
G01*
G37*
G36*
G01*
X75675000Y-68800000D02*
X75825000Y-68800000D01*
G75*
G02*
X75900000Y-68875000I0J-75000D01*
G01*
X75900000Y-70200000D01*
G75*
G02*
X75825000Y-70275000I-75000J0D01*
G01*
X75675000Y-70275000D01*
G75*
G02*
X75600000Y-70200000I0J75000D01*
G01*
X75600000Y-68875000D01*
G75*
G02*
X75675000Y-68800000I75000J0D01*
G01*
G37*
G36*
G01*
X76175000Y-68800000D02*
X76325000Y-68800000D01*
G75*
G02*
X76400000Y-68875000I0J-75000D01*
G01*
X76400000Y-70200000D01*
G75*
G02*
X76325000Y-70275000I-75000J0D01*
G01*
X76175000Y-70275000D01*
G75*
G02*
X76100000Y-70200000I0J75000D01*
G01*
X76100000Y-68875000D01*
G75*
G02*
X76175000Y-68800000I75000J0D01*
G01*
G37*
G36*
G01*
X76675000Y-68800000D02*
X76825000Y-68800000D01*
G75*
G02*
X76900000Y-68875000I0J-75000D01*
G01*
X76900000Y-70200000D01*
G75*
G02*
X76825000Y-70275000I-75000J0D01*
G01*
X76675000Y-70275000D01*
G75*
G02*
X76600000Y-70200000I0J75000D01*
G01*
X76600000Y-68875000D01*
G75*
G02*
X76675000Y-68800000I75000J0D01*
G01*
G37*
G36*
G01*
X68075000Y-73775000D02*
X67525000Y-73775000D01*
G75*
G02*
X67325000Y-73575000I0J200000D01*
G01*
X67325000Y-73175000D01*
G75*
G02*
X67525000Y-72975000I200000J0D01*
G01*
X68075000Y-72975000D01*
G75*
G02*
X68275000Y-73175000I0J-200000D01*
G01*
X68275000Y-73575000D01*
G75*
G02*
X68075000Y-73775000I-200000J0D01*
G01*
G37*
G36*
G01*
X68075000Y-75425000D02*
X67525000Y-75425000D01*
G75*
G02*
X67325000Y-75225000I0J200000D01*
G01*
X67325000Y-74825000D01*
G75*
G02*
X67525000Y-74625000I200000J0D01*
G01*
X68075000Y-74625000D01*
G75*
G02*
X68275000Y-74825000I0J-200000D01*
G01*
X68275000Y-75225000D01*
G75*
G02*
X68075000Y-75425000I-200000J0D01*
G01*
G37*
D29*
X84100000Y-76450000D03*
X84100000Y-78350000D03*
X81900000Y-78350000D03*
X81900000Y-77400000D03*
X81900000Y-76450000D03*
G36*
G01*
X86550000Y-77075000D02*
X86050000Y-77075000D01*
G75*
G02*
X85825000Y-76850000I0J225000D01*
G01*
X85825000Y-76400000D01*
G75*
G02*
X86050000Y-76175000I225000J0D01*
G01*
X86550000Y-76175000D01*
G75*
G02*
X86775000Y-76400000I0J-225000D01*
G01*
X86775000Y-76850000D01*
G75*
G02*
X86550000Y-77075000I-225000J0D01*
G01*
G37*
G36*
G01*
X86550000Y-78625000D02*
X86050000Y-78625000D01*
G75*
G02*
X85825000Y-78400000I0J225000D01*
G01*
X85825000Y-77950000D01*
G75*
G02*
X86050000Y-77725000I225000J0D01*
G01*
X86550000Y-77725000D01*
G75*
G02*
X86775000Y-77950000I0J-225000D01*
G01*
X86775000Y-78400000D01*
G75*
G02*
X86550000Y-78625000I-225000J0D01*
G01*
G37*
G36*
G01*
X88875000Y-92425000D02*
X88875000Y-92975000D01*
G75*
G02*
X88675000Y-93175000I-200000J0D01*
G01*
X88275000Y-93175000D01*
G75*
G02*
X88075000Y-92975000I0J200000D01*
G01*
X88075000Y-92425000D01*
G75*
G02*
X88275000Y-92225000I200000J0D01*
G01*
X88675000Y-92225000D01*
G75*
G02*
X88875000Y-92425000I0J-200000D01*
G01*
G37*
G36*
G01*
X90525000Y-92425000D02*
X90525000Y-92975000D01*
G75*
G02*
X90325000Y-93175000I-200000J0D01*
G01*
X89925000Y-93175000D01*
G75*
G02*
X89725000Y-92975000I0J200000D01*
G01*
X89725000Y-92425000D01*
G75*
G02*
X89925000Y-92225000I200000J0D01*
G01*
X90325000Y-92225000D01*
G75*
G02*
X90525000Y-92425000I0J-200000D01*
G01*
G37*
G36*
G01*
X85425000Y-95500000D02*
X85975000Y-95500000D01*
G75*
G02*
X86175000Y-95700000I0J-200000D01*
G01*
X86175000Y-96100000D01*
G75*
G02*
X85975000Y-96300000I-200000J0D01*
G01*
X85425000Y-96300000D01*
G75*
G02*
X85225000Y-96100000I0J200000D01*
G01*
X85225000Y-95700000D01*
G75*
G02*
X85425000Y-95500000I200000J0D01*
G01*
G37*
G36*
G01*
X85425000Y-93850000D02*
X85975000Y-93850000D01*
G75*
G02*
X86175000Y-94050000I0J-200000D01*
G01*
X86175000Y-94450000D01*
G75*
G02*
X85975000Y-94650000I-200000J0D01*
G01*
X85425000Y-94650000D01*
G75*
G02*
X85225000Y-94450000I0J200000D01*
G01*
X85225000Y-94050000D01*
G75*
G02*
X85425000Y-93850000I200000J0D01*
G01*
G37*
G36*
G01*
X88056250Y-94750000D02*
X87143750Y-94750000D01*
G75*
G02*
X86900000Y-94506250I0J243750D01*
G01*
X86900000Y-94018750D01*
G75*
G02*
X87143750Y-93775000I243750J0D01*
G01*
X88056250Y-93775000D01*
G75*
G02*
X88300000Y-94018750I0J-243750D01*
G01*
X88300000Y-94506250D01*
G75*
G02*
X88056250Y-94750000I-243750J0D01*
G01*
G37*
G36*
G01*
X88056250Y-96625000D02*
X87143750Y-96625000D01*
G75*
G02*
X86900000Y-96381250I0J243750D01*
G01*
X86900000Y-95893750D01*
G75*
G02*
X87143750Y-95650000I243750J0D01*
G01*
X88056250Y-95650000D01*
G75*
G02*
X88300000Y-95893750I0J-243750D01*
G01*
X88300000Y-96381250D01*
G75*
G02*
X88056250Y-96625000I-243750J0D01*
G01*
G37*
G36*
G01*
X92450000Y-80843750D02*
X92450000Y-81756250D01*
G75*
G02*
X92206250Y-82000000I-243750J0D01*
G01*
X91718750Y-82000000D01*
G75*
G02*
X91475000Y-81756250I0J243750D01*
G01*
X91475000Y-80843750D01*
G75*
G02*
X91718750Y-80600000I243750J0D01*
G01*
X92206250Y-80600000D01*
G75*
G02*
X92450000Y-80843750I0J-243750D01*
G01*
G37*
G36*
G01*
X94325000Y-80843750D02*
X94325000Y-81756250D01*
G75*
G02*
X94081250Y-82000000I-243750J0D01*
G01*
X93593750Y-82000000D01*
G75*
G02*
X93350000Y-81756250I0J243750D01*
G01*
X93350000Y-80843750D01*
G75*
G02*
X93593750Y-80600000I243750J0D01*
G01*
X94081250Y-80600000D01*
G75*
G02*
X94325000Y-80843750I0J-243750D01*
G01*
G37*
G36*
G01*
X92450000Y-76643750D02*
X92450000Y-77556250D01*
G75*
G02*
X92206250Y-77800000I-243750J0D01*
G01*
X91718750Y-77800000D01*
G75*
G02*
X91475000Y-77556250I0J243750D01*
G01*
X91475000Y-76643750D01*
G75*
G02*
X91718750Y-76400000I243750J0D01*
G01*
X92206250Y-76400000D01*
G75*
G02*
X92450000Y-76643750I0J-243750D01*
G01*
G37*
G36*
G01*
X94325000Y-76643750D02*
X94325000Y-77556250D01*
G75*
G02*
X94081250Y-77800000I-243750J0D01*
G01*
X93593750Y-77800000D01*
G75*
G02*
X93350000Y-77556250I0J243750D01*
G01*
X93350000Y-76643750D01*
G75*
G02*
X93593750Y-76400000I243750J0D01*
G01*
X94081250Y-76400000D01*
G75*
G02*
X94325000Y-76643750I0J-243750D01*
G01*
G37*
G36*
G01*
X92450000Y-78743750D02*
X92450000Y-79656250D01*
G75*
G02*
X92206250Y-79900000I-243750J0D01*
G01*
X91718750Y-79900000D01*
G75*
G02*
X91475000Y-79656250I0J243750D01*
G01*
X91475000Y-78743750D01*
G75*
G02*
X91718750Y-78500000I243750J0D01*
G01*
X92206250Y-78500000D01*
G75*
G02*
X92450000Y-78743750I0J-243750D01*
G01*
G37*
G36*
G01*
X94325000Y-78743750D02*
X94325000Y-79656250D01*
G75*
G02*
X94081250Y-79900000I-243750J0D01*
G01*
X93593750Y-79900000D01*
G75*
G02*
X93350000Y-79656250I0J243750D01*
G01*
X93350000Y-78743750D01*
G75*
G02*
X93593750Y-78500000I243750J0D01*
G01*
X94081250Y-78500000D01*
G75*
G02*
X94325000Y-78743750I0J-243750D01*
G01*
G37*
G36*
G01*
X90256250Y-94787500D02*
X89343750Y-94787500D01*
G75*
G02*
X89100000Y-94543750I0J243750D01*
G01*
X89100000Y-94056250D01*
G75*
G02*
X89343750Y-93812500I243750J0D01*
G01*
X90256250Y-93812500D01*
G75*
G02*
X90500000Y-94056250I0J-243750D01*
G01*
X90500000Y-94543750D01*
G75*
G02*
X90256250Y-94787500I-243750J0D01*
G01*
G37*
G36*
G01*
X90256250Y-96662500D02*
X89343750Y-96662500D01*
G75*
G02*
X89100000Y-96418750I0J243750D01*
G01*
X89100000Y-95931250D01*
G75*
G02*
X89343750Y-95687500I243750J0D01*
G01*
X90256250Y-95687500D01*
G75*
G02*
X90500000Y-95931250I0J-243750D01*
G01*
X90500000Y-96418750D01*
G75*
G02*
X90256250Y-96662500I-243750J0D01*
G01*
G37*
G36*
G01*
X70356250Y-63250000D02*
X69843750Y-63250000D01*
G75*
G02*
X69625000Y-63031250I0J218750D01*
G01*
X69625000Y-62593750D01*
G75*
G02*
X69843750Y-62375000I218750J0D01*
G01*
X70356250Y-62375000D01*
G75*
G02*
X70575000Y-62593750I0J-218750D01*
G01*
X70575000Y-63031250D01*
G75*
G02*
X70356250Y-63250000I-218750J0D01*
G01*
G37*
G36*
G01*
X70356250Y-64825000D02*
X69843750Y-64825000D01*
G75*
G02*
X69625000Y-64606250I0J218750D01*
G01*
X69625000Y-64168750D01*
G75*
G02*
X69843750Y-63950000I218750J0D01*
G01*
X70356250Y-63950000D01*
G75*
G02*
X70575000Y-64168750I0J-218750D01*
G01*
X70575000Y-64606250D01*
G75*
G02*
X70356250Y-64825000I-218750J0D01*
G01*
G37*
G36*
G01*
X72250000Y-67775000D02*
X72250000Y-66825000D01*
G75*
G02*
X72500000Y-66575000I250000J0D01*
G01*
X73000000Y-66575000D01*
G75*
G02*
X73250000Y-66825000I0J-250000D01*
G01*
X73250000Y-67775000D01*
G75*
G02*
X73000000Y-68025000I-250000J0D01*
G01*
X72500000Y-68025000D01*
G75*
G02*
X72250000Y-67775000I0J250000D01*
G01*
G37*
G36*
G01*
X70350000Y-67775000D02*
X70350000Y-66825000D01*
G75*
G02*
X70600000Y-66575000I250000J0D01*
G01*
X71100000Y-66575000D01*
G75*
G02*
X71350000Y-66825000I0J-250000D01*
G01*
X71350000Y-67775000D01*
G75*
G02*
X71100000Y-68025000I-250000J0D01*
G01*
X70600000Y-68025000D01*
G75*
G02*
X70350000Y-67775000I0J250000D01*
G01*
G37*
D30*
X89900000Y-54000000D03*
X89900000Y-50500000D03*
D31*
X93200000Y-93720000D03*
X93200000Y-91180000D03*
X93200000Y-88640000D03*
D32*
X93200000Y-86100000D03*
G36*
G01*
X85950000Y-82575000D02*
X85450000Y-82575000D01*
G75*
G02*
X85225000Y-82350000I0J225000D01*
G01*
X85225000Y-81900000D01*
G75*
G02*
X85450000Y-81675000I225000J0D01*
G01*
X85950000Y-81675000D01*
G75*
G02*
X86175000Y-81900000I0J-225000D01*
G01*
X86175000Y-82350000D01*
G75*
G02*
X85950000Y-82575000I-225000J0D01*
G01*
G37*
G36*
G01*
X85950000Y-84125000D02*
X85450000Y-84125000D01*
G75*
G02*
X85225000Y-83900000I0J225000D01*
G01*
X85225000Y-83450000D01*
G75*
G02*
X85450000Y-83225000I225000J0D01*
G01*
X85950000Y-83225000D01*
G75*
G02*
X86175000Y-83450000I0J-225000D01*
G01*
X86175000Y-83900000D01*
G75*
G02*
X85950000Y-84125000I-225000J0D01*
G01*
G37*
G36*
G01*
X70150000Y-42175000D02*
X69650000Y-42175000D01*
G75*
G02*
X69425000Y-41950000I0J225000D01*
G01*
X69425000Y-41500000D01*
G75*
G02*
X69650000Y-41275000I225000J0D01*
G01*
X70150000Y-41275000D01*
G75*
G02*
X70375000Y-41500000I0J-225000D01*
G01*
X70375000Y-41950000D01*
G75*
G02*
X70150000Y-42175000I-225000J0D01*
G01*
G37*
G36*
G01*
X70150000Y-43725000D02*
X69650000Y-43725000D01*
G75*
G02*
X69425000Y-43500000I0J225000D01*
G01*
X69425000Y-43050000D01*
G75*
G02*
X69650000Y-42825000I225000J0D01*
G01*
X70150000Y-42825000D01*
G75*
G02*
X70375000Y-43050000I0J-225000D01*
G01*
X70375000Y-43500000D01*
G75*
G02*
X70150000Y-43725000I-225000J0D01*
G01*
G37*
D21*
X80700000Y-81500000D03*
X83000000Y-81500000D03*
D33*
G36*
X82650602Y-46050000D02*
G01*
X82650602Y-46025466D01*
X82655412Y-45976635D01*
X82664984Y-45928510D01*
X82679228Y-45881555D01*
X82698005Y-45836222D01*
X82721136Y-45792949D01*
X82748396Y-45752150D01*
X82779524Y-45714221D01*
X82814221Y-45679524D01*
X82852150Y-45648396D01*
X82892949Y-45621136D01*
X82936222Y-45598005D01*
X82981555Y-45579228D01*
X83028510Y-45564984D01*
X83076635Y-45555412D01*
X83125466Y-45550602D01*
X83150000Y-45550602D01*
X83150000Y-45550000D01*
X83650000Y-45550000D01*
X83650000Y-45550602D01*
X83674534Y-45550602D01*
X83723365Y-45555412D01*
X83771490Y-45564984D01*
X83818445Y-45579228D01*
X83863778Y-45598005D01*
X83907051Y-45621136D01*
X83947850Y-45648396D01*
X83985779Y-45679524D01*
X84020476Y-45714221D01*
X84051604Y-45752150D01*
X84078864Y-45792949D01*
X84101995Y-45836222D01*
X84120772Y-45881555D01*
X84135016Y-45928510D01*
X84144588Y-45976635D01*
X84149398Y-46025466D01*
X84149398Y-46050000D01*
X84150000Y-46050000D01*
X84150000Y-46550000D01*
X82650000Y-46550000D01*
X82650000Y-46050000D01*
X82650602Y-46050000D01*
G37*
G36*
X84150000Y-46850000D02*
G01*
X84150000Y-47350000D01*
X84149398Y-47350000D01*
X84149398Y-47374534D01*
X84144588Y-47423365D01*
X84135016Y-47471490D01*
X84120772Y-47518445D01*
X84101995Y-47563778D01*
X84078864Y-47607051D01*
X84051604Y-47647850D01*
X84020476Y-47685779D01*
X83985779Y-47720476D01*
X83947850Y-47751604D01*
X83907051Y-47778864D01*
X83863778Y-47801995D01*
X83818445Y-47820772D01*
X83771490Y-47835016D01*
X83723365Y-47844588D01*
X83674534Y-47849398D01*
X83650000Y-47849398D01*
X83650000Y-47850000D01*
X83150000Y-47850000D01*
X83150000Y-47849398D01*
X83125466Y-47849398D01*
X83076635Y-47844588D01*
X83028510Y-47835016D01*
X82981555Y-47820772D01*
X82936222Y-47801995D01*
X82892949Y-47778864D01*
X82852150Y-47751604D01*
X82814221Y-47720476D01*
X82779524Y-47685779D01*
X82748396Y-47647850D01*
X82721136Y-47607051D01*
X82698005Y-47563778D01*
X82679228Y-47518445D01*
X82664984Y-47471490D01*
X82655412Y-47423365D01*
X82650602Y-47374534D01*
X82650602Y-47350000D01*
X82650000Y-47350000D01*
X82650000Y-46850000D01*
X84150000Y-46850000D01*
G37*
G36*
G01*
X88500000Y-60345000D02*
X88500000Y-60045000D01*
G75*
G02*
X88650000Y-59895000I150000J0D01*
G01*
X90300000Y-59895000D01*
G75*
G02*
X90450000Y-60045000I0J-150000D01*
G01*
X90450000Y-60345000D01*
G75*
G02*
X90300000Y-60495000I-150000J0D01*
G01*
X88650000Y-60495000D01*
G75*
G02*
X88500000Y-60345000I0J150000D01*
G01*
G37*
G36*
G01*
X88500000Y-61615000D02*
X88500000Y-61315000D01*
G75*
G02*
X88650000Y-61165000I150000J0D01*
G01*
X90300000Y-61165000D01*
G75*
G02*
X90450000Y-61315000I0J-150000D01*
G01*
X90450000Y-61615000D01*
G75*
G02*
X90300000Y-61765000I-150000J0D01*
G01*
X88650000Y-61765000D01*
G75*
G02*
X88500000Y-61615000I0J150000D01*
G01*
G37*
G36*
G01*
X88500000Y-62885000D02*
X88500000Y-62585000D01*
G75*
G02*
X88650000Y-62435000I150000J0D01*
G01*
X90300000Y-62435000D01*
G75*
G02*
X90450000Y-62585000I0J-150000D01*
G01*
X90450000Y-62885000D01*
G75*
G02*
X90300000Y-63035000I-150000J0D01*
G01*
X88650000Y-63035000D01*
G75*
G02*
X88500000Y-62885000I0J150000D01*
G01*
G37*
G36*
G01*
X88500000Y-64155000D02*
X88500000Y-63855000D01*
G75*
G02*
X88650000Y-63705000I150000J0D01*
G01*
X90300000Y-63705000D01*
G75*
G02*
X90450000Y-63855000I0J-150000D01*
G01*
X90450000Y-64155000D01*
G75*
G02*
X90300000Y-64305000I-150000J0D01*
G01*
X88650000Y-64305000D01*
G75*
G02*
X88500000Y-64155000I0J150000D01*
G01*
G37*
G36*
G01*
X83550000Y-64155000D02*
X83550000Y-63855000D01*
G75*
G02*
X83700000Y-63705000I150000J0D01*
G01*
X85350000Y-63705000D01*
G75*
G02*
X85500000Y-63855000I0J-150000D01*
G01*
X85500000Y-64155000D01*
G75*
G02*
X85350000Y-64305000I-150000J0D01*
G01*
X83700000Y-64305000D01*
G75*
G02*
X83550000Y-64155000I0J150000D01*
G01*
G37*
G36*
G01*
X83550000Y-62885000D02*
X83550000Y-62585000D01*
G75*
G02*
X83700000Y-62435000I150000J0D01*
G01*
X85350000Y-62435000D01*
G75*
G02*
X85500000Y-62585000I0J-150000D01*
G01*
X85500000Y-62885000D01*
G75*
G02*
X85350000Y-63035000I-150000J0D01*
G01*
X83700000Y-63035000D01*
G75*
G02*
X83550000Y-62885000I0J150000D01*
G01*
G37*
G36*
G01*
X83550000Y-61615000D02*
X83550000Y-61315000D01*
G75*
G02*
X83700000Y-61165000I150000J0D01*
G01*
X85350000Y-61165000D01*
G75*
G02*
X85500000Y-61315000I0J-150000D01*
G01*
X85500000Y-61615000D01*
G75*
G02*
X85350000Y-61765000I-150000J0D01*
G01*
X83700000Y-61765000D01*
G75*
G02*
X83550000Y-61615000I0J150000D01*
G01*
G37*
G36*
G01*
X83550000Y-60345000D02*
X83550000Y-60045000D01*
G75*
G02*
X83700000Y-59895000I150000J0D01*
G01*
X85350000Y-59895000D01*
G75*
G02*
X85500000Y-60045000I0J-150000D01*
G01*
X85500000Y-60345000D01*
G75*
G02*
X85350000Y-60495000I-150000J0D01*
G01*
X83700000Y-60495000D01*
G75*
G02*
X83550000Y-60345000I0J150000D01*
G01*
G37*
G36*
G01*
X82650000Y-61775000D02*
X82150000Y-61775000D01*
G75*
G02*
X81925000Y-61550000I0J225000D01*
G01*
X81925000Y-61100000D01*
G75*
G02*
X82150000Y-60875000I225000J0D01*
G01*
X82650000Y-60875000D01*
G75*
G02*
X82875000Y-61100000I0J-225000D01*
G01*
X82875000Y-61550000D01*
G75*
G02*
X82650000Y-61775000I-225000J0D01*
G01*
G37*
G36*
G01*
X82650000Y-63325000D02*
X82150000Y-63325000D01*
G75*
G02*
X81925000Y-63100000I0J225000D01*
G01*
X81925000Y-62650000D01*
G75*
G02*
X82150000Y-62425000I225000J0D01*
G01*
X82650000Y-62425000D01*
G75*
G02*
X82875000Y-62650000I0J-225000D01*
G01*
X82875000Y-63100000D01*
G75*
G02*
X82650000Y-63325000I-225000J0D01*
G01*
G37*
G36*
G01*
X92725000Y-64350000D02*
X92725000Y-63850000D01*
G75*
G02*
X92950000Y-63625000I225000J0D01*
G01*
X93400000Y-63625000D01*
G75*
G02*
X93625000Y-63850000I0J-225000D01*
G01*
X93625000Y-64350000D01*
G75*
G02*
X93400000Y-64575000I-225000J0D01*
G01*
X92950000Y-64575000D01*
G75*
G02*
X92725000Y-64350000I0J225000D01*
G01*
G37*
G36*
G01*
X91175000Y-64350000D02*
X91175000Y-63850000D01*
G75*
G02*
X91400000Y-63625000I225000J0D01*
G01*
X91850000Y-63625000D01*
G75*
G02*
X92075000Y-63850000I0J-225000D01*
G01*
X92075000Y-64350000D01*
G75*
G02*
X91850000Y-64575000I-225000J0D01*
G01*
X91400000Y-64575000D01*
G75*
G02*
X91175000Y-64350000I0J225000D01*
G01*
G37*
D34*
X87450000Y-72300000D03*
X93950000Y-72300000D03*
X87450000Y-68000000D03*
X93950000Y-68000000D03*
X72150000Y-84300000D03*
X78650000Y-84300000D03*
D35*
X79000000Y-92900000D03*
X74800000Y-92900000D03*
D36*
X77800000Y-47500000D03*
X77800000Y-50000000D03*
X77800000Y-52500000D03*
X80200000Y-47500000D03*
X80200000Y-50000000D03*
X80200000Y-52500000D03*
X71600000Y-47500000D03*
X71600000Y-50000000D03*
X71600000Y-52500000D03*
X74000000Y-47500000D03*
X74000000Y-50000000D03*
X74000000Y-52500000D03*
G36*
G01*
X76850000Y-101000000D02*
X77950000Y-101000000D01*
G75*
G02*
X78200000Y-101250000I0J-250000D01*
G01*
X78200000Y-103750000D01*
G75*
G02*
X77950000Y-104000000I-250000J0D01*
G01*
X76850000Y-104000000D01*
G75*
G02*
X76600000Y-103750000I0J250000D01*
G01*
X76600000Y-101250000D01*
G75*
G02*
X76850000Y-101000000I250000J0D01*
G01*
G37*
G36*
G01*
X76850000Y-96600000D02*
X77950000Y-96600000D01*
G75*
G02*
X78200000Y-96850000I0J-250000D01*
G01*
X78200000Y-99350000D01*
G75*
G02*
X77950000Y-99600000I-250000J0D01*
G01*
X76850000Y-99600000D01*
G75*
G02*
X76600000Y-99350000I0J250000D01*
G01*
X76600000Y-96850000D01*
G75*
G02*
X76850000Y-96600000I250000J0D01*
G01*
G37*
G36*
G01*
X82850000Y-101000000D02*
X83950000Y-101000000D01*
G75*
G02*
X84200000Y-101250000I0J-250000D01*
G01*
X84200000Y-103750000D01*
G75*
G02*
X83950000Y-104000000I-250000J0D01*
G01*
X82850000Y-104000000D01*
G75*
G02*
X82600000Y-103750000I0J250000D01*
G01*
X82600000Y-101250000D01*
G75*
G02*
X82850000Y-101000000I250000J0D01*
G01*
G37*
G36*
G01*
X82850000Y-96600000D02*
X83950000Y-96600000D01*
G75*
G02*
X84200000Y-96850000I0J-250000D01*
G01*
X84200000Y-99350000D01*
G75*
G02*
X83950000Y-99600000I-250000J0D01*
G01*
X82850000Y-99600000D01*
G75*
G02*
X82600000Y-99350000I0J250000D01*
G01*
X82600000Y-96850000D01*
G75*
G02*
X82850000Y-96600000I250000J0D01*
G01*
G37*
G36*
G01*
X70850000Y-101000000D02*
X71950000Y-101000000D01*
G75*
G02*
X72200000Y-101250000I0J-250000D01*
G01*
X72200000Y-103750000D01*
G75*
G02*
X71950000Y-104000000I-250000J0D01*
G01*
X70850000Y-104000000D01*
G75*
G02*
X70600000Y-103750000I0J250000D01*
G01*
X70600000Y-101250000D01*
G75*
G02*
X70850000Y-101000000I250000J0D01*
G01*
G37*
G36*
G01*
X70850000Y-96600000D02*
X71950000Y-96600000D01*
G75*
G02*
X72200000Y-96850000I0J-250000D01*
G01*
X72200000Y-99350000D01*
G75*
G02*
X71950000Y-99600000I-250000J0D01*
G01*
X70850000Y-99600000D01*
G75*
G02*
X70600000Y-99350000I0J250000D01*
G01*
X70600000Y-96850000D01*
G75*
G02*
X70850000Y-96600000I250000J0D01*
G01*
G37*
D37*
X92697056Y-42302944D03*
X91000000Y-41600000D03*
X89302944Y-42302944D03*
X88600000Y-44000000D03*
X89302944Y-45697056D03*
X91000000Y-46400000D03*
X92697056Y-45697056D03*
X93400000Y-44000000D03*
D38*
X91000000Y-44000000D03*
D37*
X92697056Y-99302944D03*
X91000000Y-98600000D03*
X89302944Y-99302944D03*
X88600000Y-101000000D03*
X89302944Y-102697056D03*
X91000000Y-103400000D03*
X92697056Y-102697056D03*
X93400000Y-101000000D03*
D38*
X91000000Y-101000000D03*
D37*
X20697056Y-99302944D03*
X19000000Y-98600000D03*
X17302944Y-99302944D03*
X16600000Y-101000000D03*
X17302944Y-102697056D03*
X19000000Y-103400000D03*
X20697056Y-102697056D03*
X21400000Y-101000000D03*
D38*
X19000000Y-101000000D03*
D37*
X20697056Y-42302944D03*
X19000000Y-41600000D03*
X17302944Y-42302944D03*
X16600000Y-44000000D03*
X17302944Y-45697056D03*
X19000000Y-46400000D03*
X20697056Y-45697056D03*
X21400000Y-44000000D03*
D38*
X19000000Y-44000000D03*
D28*
X47100000Y-53550000D03*
X47100000Y-43850000D03*
D39*
X45550000Y-94800000D03*
X35850000Y-94800000D03*
X54950000Y-90700000D03*
X64650000Y-90700000D03*
D22*
X32350000Y-60500000D03*
X33300000Y-60500000D03*
X31400000Y-60500000D03*
X31400000Y-58300000D03*
X32350000Y-58300000D03*
X33300000Y-58300000D03*
G36*
G01*
X47650000Y-100250000D02*
X50550000Y-100250000D01*
G75*
G02*
X50800000Y-100500000I0J-250000D01*
G01*
X50800000Y-101000000D01*
G75*
G02*
X50550000Y-101250000I-250000J0D01*
G01*
X47650000Y-101250000D01*
G75*
G02*
X47400000Y-101000000I0J250000D01*
G01*
X47400000Y-100500000D01*
G75*
G02*
X47650000Y-100250000I250000J0D01*
G01*
G37*
G36*
G01*
X47650000Y-98750000D02*
X50550000Y-98750000D01*
G75*
G02*
X50800000Y-99000000I0J-250000D01*
G01*
X50800000Y-99500000D01*
G75*
G02*
X50550000Y-99750000I-250000J0D01*
G01*
X47650000Y-99750000D01*
G75*
G02*
X47400000Y-99500000I0J250000D01*
G01*
X47400000Y-99000000D01*
G75*
G02*
X47650000Y-98750000I250000J0D01*
G01*
G37*
D40*
X75800000Y-65400000D03*
X73600000Y-65400000D03*
X73600000Y-63700000D03*
X75800000Y-63700000D03*
D41*
X77800000Y-65700000D03*
X80300000Y-65700000D03*
D33*
G36*
X33500000Y-66166500D02*
G01*
X30375000Y-66166500D01*
X30375000Y-65750000D01*
X28900000Y-65750000D01*
X28900000Y-64850000D01*
X30375000Y-64850000D01*
X30375000Y-64433500D01*
X33500000Y-64433500D01*
X33500000Y-66166500D01*
G37*
D42*
X29550000Y-66800000D03*
X29550000Y-63800000D03*
G36*
G01*
X57825000Y-101825000D02*
X57825000Y-101975000D01*
G75*
G02*
X57750000Y-102050000I-75000J0D01*
G01*
X56450000Y-102050000D01*
G75*
G02*
X56375000Y-101975000I0J75000D01*
G01*
X56375000Y-101825000D01*
G75*
G02*
X56450000Y-101750000I75000J0D01*
G01*
X57750000Y-101750000D01*
G75*
G02*
X57825000Y-101825000I0J-75000D01*
G01*
G37*
G36*
G01*
X57825000Y-101325000D02*
X57825000Y-101475000D01*
G75*
G02*
X57750000Y-101550000I-75000J0D01*
G01*
X56450000Y-101550000D01*
G75*
G02*
X56375000Y-101475000I0J75000D01*
G01*
X56375000Y-101325000D01*
G75*
G02*
X56450000Y-101250000I75000J0D01*
G01*
X57750000Y-101250000D01*
G75*
G02*
X57825000Y-101325000I0J-75000D01*
G01*
G37*
G36*
G01*
X57825000Y-100825000D02*
X57825000Y-100975000D01*
G75*
G02*
X57750000Y-101050000I-75000J0D01*
G01*
X56450000Y-101050000D01*
G75*
G02*
X56375000Y-100975000I0J75000D01*
G01*
X56375000Y-100825000D01*
G75*
G02*
X56450000Y-100750000I75000J0D01*
G01*
X57750000Y-100750000D01*
G75*
G02*
X57825000Y-100825000I0J-75000D01*
G01*
G37*
G36*
G01*
X57825000Y-100325000D02*
X57825000Y-100475000D01*
G75*
G02*
X57750000Y-100550000I-75000J0D01*
G01*
X56450000Y-100550000D01*
G75*
G02*
X56375000Y-100475000I0J75000D01*
G01*
X56375000Y-100325000D01*
G75*
G02*
X56450000Y-100250000I75000J0D01*
G01*
X57750000Y-100250000D01*
G75*
G02*
X57825000Y-100325000I0J-75000D01*
G01*
G37*
G36*
G01*
X57825000Y-99825000D02*
X57825000Y-99975000D01*
G75*
G02*
X57750000Y-100050000I-75000J0D01*
G01*
X56450000Y-100050000D01*
G75*
G02*
X56375000Y-99975000I0J75000D01*
G01*
X56375000Y-99825000D01*
G75*
G02*
X56450000Y-99750000I75000J0D01*
G01*
X57750000Y-99750000D01*
G75*
G02*
X57825000Y-99825000I0J-75000D01*
G01*
G37*
G36*
G01*
X62225000Y-99825000D02*
X62225000Y-99975000D01*
G75*
G02*
X62150000Y-100050000I-75000J0D01*
G01*
X60850000Y-100050000D01*
G75*
G02*
X60775000Y-99975000I0J75000D01*
G01*
X60775000Y-99825000D01*
G75*
G02*
X60850000Y-99750000I75000J0D01*
G01*
X62150000Y-99750000D01*
G75*
G02*
X62225000Y-99825000I0J-75000D01*
G01*
G37*
G36*
G01*
X62225000Y-100325000D02*
X62225000Y-100475000D01*
G75*
G02*
X62150000Y-100550000I-75000J0D01*
G01*
X60850000Y-100550000D01*
G75*
G02*
X60775000Y-100475000I0J75000D01*
G01*
X60775000Y-100325000D01*
G75*
G02*
X60850000Y-100250000I75000J0D01*
G01*
X62150000Y-100250000D01*
G75*
G02*
X62225000Y-100325000I0J-75000D01*
G01*
G37*
G36*
G01*
X62225000Y-100825000D02*
X62225000Y-100975000D01*
G75*
G02*
X62150000Y-101050000I-75000J0D01*
G01*
X60850000Y-101050000D01*
G75*
G02*
X60775000Y-100975000I0J75000D01*
G01*
X60775000Y-100825000D01*
G75*
G02*
X60850000Y-100750000I75000J0D01*
G01*
X62150000Y-100750000D01*
G75*
G02*
X62225000Y-100825000I0J-75000D01*
G01*
G37*
G36*
G01*
X62225000Y-101325000D02*
X62225000Y-101475000D01*
G75*
G02*
X62150000Y-101550000I-75000J0D01*
G01*
X60850000Y-101550000D01*
G75*
G02*
X60775000Y-101475000I0J75000D01*
G01*
X60775000Y-101325000D01*
G75*
G02*
X60850000Y-101250000I75000J0D01*
G01*
X62150000Y-101250000D01*
G75*
G02*
X62225000Y-101325000I0J-75000D01*
G01*
G37*
G36*
G01*
X62225000Y-101825000D02*
X62225000Y-101975000D01*
G75*
G02*
X62150000Y-102050000I-75000J0D01*
G01*
X60850000Y-102050000D01*
G75*
G02*
X60775000Y-101975000I0J75000D01*
G01*
X60775000Y-101825000D01*
G75*
G02*
X60850000Y-101750000I75000J0D01*
G01*
X62150000Y-101750000D01*
G75*
G02*
X62225000Y-101825000I0J-75000D01*
G01*
G37*
G36*
G01*
X33875000Y-61925000D02*
X33875000Y-62475000D01*
G75*
G02*
X33675000Y-62675000I-200000J0D01*
G01*
X33275000Y-62675000D01*
G75*
G02*
X33075000Y-62475000I0J200000D01*
G01*
X33075000Y-61925000D01*
G75*
G02*
X33275000Y-61725000I200000J0D01*
G01*
X33675000Y-61725000D01*
G75*
G02*
X33875000Y-61925000I0J-200000D01*
G01*
G37*
G36*
G01*
X35525000Y-61925000D02*
X35525000Y-62475000D01*
G75*
G02*
X35325000Y-62675000I-200000J0D01*
G01*
X34925000Y-62675000D01*
G75*
G02*
X34725000Y-62475000I0J200000D01*
G01*
X34725000Y-61925000D01*
G75*
G02*
X34925000Y-61725000I200000J0D01*
G01*
X35325000Y-61725000D01*
G75*
G02*
X35525000Y-61925000I0J-200000D01*
G01*
G37*
G36*
G01*
X68725000Y-68375000D02*
X68725000Y-67825000D01*
G75*
G02*
X68925000Y-67625000I200000J0D01*
G01*
X69325000Y-67625000D01*
G75*
G02*
X69525000Y-67825000I0J-200000D01*
G01*
X69525000Y-68375000D01*
G75*
G02*
X69325000Y-68575000I-200000J0D01*
G01*
X68925000Y-68575000D01*
G75*
G02*
X68725000Y-68375000I0J200000D01*
G01*
G37*
G36*
G01*
X67075000Y-68375000D02*
X67075000Y-67825000D01*
G75*
G02*
X67275000Y-67625000I200000J0D01*
G01*
X67675000Y-67625000D01*
G75*
G02*
X67875000Y-67825000I0J-200000D01*
G01*
X67875000Y-68375000D01*
G75*
G02*
X67675000Y-68575000I-200000J0D01*
G01*
X67275000Y-68575000D01*
G75*
G02*
X67075000Y-68375000I0J200000D01*
G01*
G37*
G36*
G01*
X66075000Y-65275000D02*
X65525000Y-65275000D01*
G75*
G02*
X65325000Y-65075000I0J200000D01*
G01*
X65325000Y-64675000D01*
G75*
G02*
X65525000Y-64475000I200000J0D01*
G01*
X66075000Y-64475000D01*
G75*
G02*
X66275000Y-64675000I0J-200000D01*
G01*
X66275000Y-65075000D01*
G75*
G02*
X66075000Y-65275000I-200000J0D01*
G01*
G37*
G36*
G01*
X66075000Y-66925000D02*
X65525000Y-66925000D01*
G75*
G02*
X65325000Y-66725000I0J200000D01*
G01*
X65325000Y-66325000D01*
G75*
G02*
X65525000Y-66125000I200000J0D01*
G01*
X66075000Y-66125000D01*
G75*
G02*
X66275000Y-66325000I0J-200000D01*
G01*
X66275000Y-66725000D01*
G75*
G02*
X66075000Y-66925000I-200000J0D01*
G01*
G37*
G36*
G01*
X65175000Y-63125000D02*
X65175000Y-63675000D01*
G75*
G02*
X64975000Y-63875000I-200000J0D01*
G01*
X64575000Y-63875000D01*
G75*
G02*
X64375000Y-63675000I0J200000D01*
G01*
X64375000Y-63125000D01*
G75*
G02*
X64575000Y-62925000I200000J0D01*
G01*
X64975000Y-62925000D01*
G75*
G02*
X65175000Y-63125000I0J-200000D01*
G01*
G37*
G36*
G01*
X66825000Y-63125000D02*
X66825000Y-63675000D01*
G75*
G02*
X66625000Y-63875000I-200000J0D01*
G01*
X66225000Y-63875000D01*
G75*
G02*
X66025000Y-63675000I0J200000D01*
G01*
X66025000Y-63125000D01*
G75*
G02*
X66225000Y-62925000I200000J0D01*
G01*
X66625000Y-62925000D01*
G75*
G02*
X66825000Y-63125000I0J-200000D01*
G01*
G37*
G36*
G01*
X52375000Y-99125000D02*
X52375000Y-99675000D01*
G75*
G02*
X52175000Y-99875000I-200000J0D01*
G01*
X51775000Y-99875000D01*
G75*
G02*
X51575000Y-99675000I0J200000D01*
G01*
X51575000Y-99125000D01*
G75*
G02*
X51775000Y-98925000I200000J0D01*
G01*
X52175000Y-98925000D01*
G75*
G02*
X52375000Y-99125000I0J-200000D01*
G01*
G37*
G36*
G01*
X54025000Y-99125000D02*
X54025000Y-99675000D01*
G75*
G02*
X53825000Y-99875000I-200000J0D01*
G01*
X53425000Y-99875000D01*
G75*
G02*
X53225000Y-99675000I0J200000D01*
G01*
X53225000Y-99125000D01*
G75*
G02*
X53425000Y-98925000I200000J0D01*
G01*
X53825000Y-98925000D01*
G75*
G02*
X54025000Y-99125000I0J-200000D01*
G01*
G37*
G36*
G01*
X52375000Y-100725000D02*
X52375000Y-101275000D01*
G75*
G02*
X52175000Y-101475000I-200000J0D01*
G01*
X51775000Y-101475000D01*
G75*
G02*
X51575000Y-101275000I0J200000D01*
G01*
X51575000Y-100725000D01*
G75*
G02*
X51775000Y-100525000I200000J0D01*
G01*
X52175000Y-100525000D01*
G75*
G02*
X52375000Y-100725000I0J-200000D01*
G01*
G37*
G36*
G01*
X54025000Y-100725000D02*
X54025000Y-101275000D01*
G75*
G02*
X53825000Y-101475000I-200000J0D01*
G01*
X53425000Y-101475000D01*
G75*
G02*
X53225000Y-101275000I0J200000D01*
G01*
X53225000Y-100725000D01*
G75*
G02*
X53425000Y-100525000I200000J0D01*
G01*
X53825000Y-100525000D01*
G75*
G02*
X54025000Y-100725000I0J-200000D01*
G01*
G37*
G36*
G01*
X83925000Y-74575000D02*
X83925000Y-74025000D01*
G75*
G02*
X84125000Y-73825000I200000J0D01*
G01*
X84525000Y-73825000D01*
G75*
G02*
X84725000Y-74025000I0J-200000D01*
G01*
X84725000Y-74575000D01*
G75*
G02*
X84525000Y-74775000I-200000J0D01*
G01*
X84125000Y-74775000D01*
G75*
G02*
X83925000Y-74575000I0J200000D01*
G01*
G37*
G36*
G01*
X82275000Y-74575000D02*
X82275000Y-74025000D01*
G75*
G02*
X82475000Y-73825000I200000J0D01*
G01*
X82875000Y-73825000D01*
G75*
G02*
X83075000Y-74025000I0J-200000D01*
G01*
X83075000Y-74575000D01*
G75*
G02*
X82875000Y-74775000I-200000J0D01*
G01*
X82475000Y-74775000D01*
G75*
G02*
X82275000Y-74575000I0J200000D01*
G01*
G37*
G36*
G01*
X86175000Y-70875000D02*
X85625000Y-70875000D01*
G75*
G02*
X85425000Y-70675000I0J200000D01*
G01*
X85425000Y-70275000D01*
G75*
G02*
X85625000Y-70075000I200000J0D01*
G01*
X86175000Y-70075000D01*
G75*
G02*
X86375000Y-70275000I0J-200000D01*
G01*
X86375000Y-70675000D01*
G75*
G02*
X86175000Y-70875000I-200000J0D01*
G01*
G37*
G36*
G01*
X86175000Y-72525000D02*
X85625000Y-72525000D01*
G75*
G02*
X85425000Y-72325000I0J200000D01*
G01*
X85425000Y-71925000D01*
G75*
G02*
X85625000Y-71725000I200000J0D01*
G01*
X86175000Y-71725000D01*
G75*
G02*
X86375000Y-71925000I0J-200000D01*
G01*
X86375000Y-72325000D01*
G75*
G02*
X86175000Y-72525000I-200000J0D01*
G01*
G37*
G36*
G01*
X86175000Y-67075000D02*
X85625000Y-67075000D01*
G75*
G02*
X85425000Y-66875000I0J200000D01*
G01*
X85425000Y-66475000D01*
G75*
G02*
X85625000Y-66275000I200000J0D01*
G01*
X86175000Y-66275000D01*
G75*
G02*
X86375000Y-66475000I0J-200000D01*
G01*
X86375000Y-66875000D01*
G75*
G02*
X86175000Y-67075000I-200000J0D01*
G01*
G37*
G36*
G01*
X86175000Y-68725000D02*
X85625000Y-68725000D01*
G75*
G02*
X85425000Y-68525000I0J200000D01*
G01*
X85425000Y-68125000D01*
G75*
G02*
X85625000Y-67925000I200000J0D01*
G01*
X86175000Y-67925000D01*
G75*
G02*
X86375000Y-68125000I0J-200000D01*
G01*
X86375000Y-68525000D01*
G75*
G02*
X86175000Y-68725000I-200000J0D01*
G01*
G37*
G36*
G01*
X74875000Y-66825000D02*
X74875000Y-67375000D01*
G75*
G02*
X74675000Y-67575000I-200000J0D01*
G01*
X74275000Y-67575000D01*
G75*
G02*
X74075000Y-67375000I0J200000D01*
G01*
X74075000Y-66825000D01*
G75*
G02*
X74275000Y-66625000I200000J0D01*
G01*
X74675000Y-66625000D01*
G75*
G02*
X74875000Y-66825000I0J-200000D01*
G01*
G37*
G36*
G01*
X76525000Y-66825000D02*
X76525000Y-67375000D01*
G75*
G02*
X76325000Y-67575000I-200000J0D01*
G01*
X75925000Y-67575000D01*
G75*
G02*
X75725000Y-67375000I0J200000D01*
G01*
X75725000Y-66825000D01*
G75*
G02*
X75925000Y-66625000I200000J0D01*
G01*
X76325000Y-66625000D01*
G75*
G02*
X76525000Y-66825000I0J-200000D01*
G01*
G37*
G36*
G01*
X77775000Y-55975000D02*
X77225000Y-55975000D01*
G75*
G02*
X77025000Y-55775000I0J200000D01*
G01*
X77025000Y-55375000D01*
G75*
G02*
X77225000Y-55175000I200000J0D01*
G01*
X77775000Y-55175000D01*
G75*
G02*
X77975000Y-55375000I0J-200000D01*
G01*
X77975000Y-55775000D01*
G75*
G02*
X77775000Y-55975000I-200000J0D01*
G01*
G37*
G36*
G01*
X77775000Y-57625000D02*
X77225000Y-57625000D01*
G75*
G02*
X77025000Y-57425000I0J200000D01*
G01*
X77025000Y-57025000D01*
G75*
G02*
X77225000Y-56825000I200000J0D01*
G01*
X77775000Y-56825000D01*
G75*
G02*
X77975000Y-57025000I0J-200000D01*
G01*
X77975000Y-57425000D01*
G75*
G02*
X77775000Y-57625000I-200000J0D01*
G01*
G37*
G36*
G01*
X71575000Y-55975000D02*
X71025000Y-55975000D01*
G75*
G02*
X70825000Y-55775000I0J200000D01*
G01*
X70825000Y-55375000D01*
G75*
G02*
X71025000Y-55175000I200000J0D01*
G01*
X71575000Y-55175000D01*
G75*
G02*
X71775000Y-55375000I0J-200000D01*
G01*
X71775000Y-55775000D01*
G75*
G02*
X71575000Y-55975000I-200000J0D01*
G01*
G37*
G36*
G01*
X71575000Y-57625000D02*
X71025000Y-57625000D01*
G75*
G02*
X70825000Y-57425000I0J200000D01*
G01*
X70825000Y-57025000D01*
G75*
G02*
X71025000Y-56825000I200000J0D01*
G01*
X71575000Y-56825000D01*
G75*
G02*
X71775000Y-57025000I0J-200000D01*
G01*
X71775000Y-57425000D01*
G75*
G02*
X71575000Y-57625000I-200000J0D01*
G01*
G37*
D31*
X82420000Y-42000000D03*
X79880000Y-42000000D03*
X77340000Y-42000000D03*
D32*
X74800000Y-42000000D03*
D43*
X63500000Y-73400000D03*
X35500000Y-73400000D03*
D44*
X49500000Y-64900000D03*
X49500000Y-81900000D03*
G36*
G01*
X29950000Y-56875000D02*
X29450000Y-56875000D01*
G75*
G02*
X29225000Y-56650000I0J225000D01*
G01*
X29225000Y-56200000D01*
G75*
G02*
X29450000Y-55975000I225000J0D01*
G01*
X29950000Y-55975000D01*
G75*
G02*
X30175000Y-56200000I0J-225000D01*
G01*
X30175000Y-56650000D01*
G75*
G02*
X29950000Y-56875000I-225000J0D01*
G01*
G37*
G36*
G01*
X29950000Y-58425000D02*
X29450000Y-58425000D01*
G75*
G02*
X29225000Y-58200000I0J225000D01*
G01*
X29225000Y-57750000D01*
G75*
G02*
X29450000Y-57525000I225000J0D01*
G01*
X29950000Y-57525000D01*
G75*
G02*
X30175000Y-57750000I0J-225000D01*
G01*
X30175000Y-58200000D01*
G75*
G02*
X29950000Y-58425000I-225000J0D01*
G01*
G37*
G36*
G01*
X57925000Y-98550000D02*
X57925000Y-98050000D01*
G75*
G02*
X58150000Y-97825000I225000J0D01*
G01*
X58600000Y-97825000D01*
G75*
G02*
X58825000Y-98050000I0J-225000D01*
G01*
X58825000Y-98550000D01*
G75*
G02*
X58600000Y-98775000I-225000J0D01*
G01*
X58150000Y-98775000D01*
G75*
G02*
X57925000Y-98550000I0J225000D01*
G01*
G37*
G36*
G01*
X56375000Y-98550000D02*
X56375000Y-98050000D01*
G75*
G02*
X56600000Y-97825000I225000J0D01*
G01*
X57050000Y-97825000D01*
G75*
G02*
X57275000Y-98050000I0J-225000D01*
G01*
X57275000Y-98550000D01*
G75*
G02*
X57050000Y-98775000I-225000J0D01*
G01*
X56600000Y-98775000D01*
G75*
G02*
X56375000Y-98550000I0J225000D01*
G01*
G37*
G36*
G01*
X80275000Y-87350000D02*
X79325000Y-87350000D01*
G75*
G02*
X79075000Y-87100000I0J250000D01*
G01*
X79075000Y-86600000D01*
G75*
G02*
X79325000Y-86350000I250000J0D01*
G01*
X80275000Y-86350000D01*
G75*
G02*
X80525000Y-86600000I0J-250000D01*
G01*
X80525000Y-87100000D01*
G75*
G02*
X80275000Y-87350000I-250000J0D01*
G01*
G37*
G36*
G01*
X80275000Y-89250000D02*
X79325000Y-89250000D01*
G75*
G02*
X79075000Y-89000000I0J250000D01*
G01*
X79075000Y-88500000D01*
G75*
G02*
X79325000Y-88250000I250000J0D01*
G01*
X80275000Y-88250000D01*
G75*
G02*
X80525000Y-88500000I0J-250000D01*
G01*
X80525000Y-89000000D01*
G75*
G02*
X80275000Y-89250000I-250000J0D01*
G01*
G37*
G36*
G01*
X76350000Y-80825000D02*
X76850000Y-80825000D01*
G75*
G02*
X77075000Y-81050000I0J-225000D01*
G01*
X77075000Y-81500000D01*
G75*
G02*
X76850000Y-81725000I-225000J0D01*
G01*
X76350000Y-81725000D01*
G75*
G02*
X76125000Y-81500000I0J225000D01*
G01*
X76125000Y-81050000D01*
G75*
G02*
X76350000Y-80825000I225000J0D01*
G01*
G37*
G36*
G01*
X76350000Y-79275000D02*
X76850000Y-79275000D01*
G75*
G02*
X77075000Y-79500000I0J-225000D01*
G01*
X77075000Y-79950000D01*
G75*
G02*
X76850000Y-80175000I-225000J0D01*
G01*
X76350000Y-80175000D01*
G75*
G02*
X76125000Y-79950000I0J225000D01*
G01*
X76125000Y-79500000D01*
G75*
G02*
X76350000Y-79275000I225000J0D01*
G01*
G37*
G36*
G01*
X83250000Y-94775000D02*
X83250000Y-93825000D01*
G75*
G02*
X83500000Y-93575000I250000J0D01*
G01*
X84000000Y-93575000D01*
G75*
G02*
X84250000Y-93825000I0J-250000D01*
G01*
X84250000Y-94775000D01*
G75*
G02*
X84000000Y-95025000I-250000J0D01*
G01*
X83500000Y-95025000D01*
G75*
G02*
X83250000Y-94775000I0J250000D01*
G01*
G37*
G36*
G01*
X81350000Y-94775000D02*
X81350000Y-93825000D01*
G75*
G02*
X81600000Y-93575000I250000J0D01*
G01*
X82100000Y-93575000D01*
G75*
G02*
X82350000Y-93825000I0J-250000D01*
G01*
X82350000Y-94775000D01*
G75*
G02*
X82100000Y-95025000I-250000J0D01*
G01*
X81600000Y-95025000D01*
G75*
G02*
X81350000Y-94775000I0J250000D01*
G01*
G37*
G36*
G01*
X68175000Y-79150000D02*
X68175000Y-79650000D01*
G75*
G02*
X67950000Y-79875000I-225000J0D01*
G01*
X67500000Y-79875000D01*
G75*
G02*
X67275000Y-79650000I0J225000D01*
G01*
X67275000Y-79150000D01*
G75*
G02*
X67500000Y-78925000I225000J0D01*
G01*
X67950000Y-78925000D01*
G75*
G02*
X68175000Y-79150000I0J-225000D01*
G01*
G37*
G36*
G01*
X69725000Y-79150000D02*
X69725000Y-79650000D01*
G75*
G02*
X69500000Y-79875000I-225000J0D01*
G01*
X69050000Y-79875000D01*
G75*
G02*
X68825000Y-79650000I0J225000D01*
G01*
X68825000Y-79150000D01*
G75*
G02*
X69050000Y-78925000I225000J0D01*
G01*
X69500000Y-78925000D01*
G75*
G02*
X69725000Y-79150000I0J-225000D01*
G01*
G37*
G36*
G01*
X77950000Y-80825000D02*
X78450000Y-80825000D01*
G75*
G02*
X78675000Y-81050000I0J-225000D01*
G01*
X78675000Y-81500000D01*
G75*
G02*
X78450000Y-81725000I-225000J0D01*
G01*
X77950000Y-81725000D01*
G75*
G02*
X77725000Y-81500000I0J225000D01*
G01*
X77725000Y-81050000D01*
G75*
G02*
X77950000Y-80825000I225000J0D01*
G01*
G37*
G36*
G01*
X77950000Y-79275000D02*
X78450000Y-79275000D01*
G75*
G02*
X78675000Y-79500000I0J-225000D01*
G01*
X78675000Y-79950000D01*
G75*
G02*
X78450000Y-80175000I-225000J0D01*
G01*
X77950000Y-80175000D01*
G75*
G02*
X77725000Y-79950000I0J225000D01*
G01*
X77725000Y-79500000D01*
G75*
G02*
X77950000Y-79275000I225000J0D01*
G01*
G37*
G36*
G01*
X68175000Y-77550000D02*
X68175000Y-78050000D01*
G75*
G02*
X67950000Y-78275000I-225000J0D01*
G01*
X67500000Y-78275000D01*
G75*
G02*
X67275000Y-78050000I0J225000D01*
G01*
X67275000Y-77550000D01*
G75*
G02*
X67500000Y-77325000I225000J0D01*
G01*
X67950000Y-77325000D01*
G75*
G02*
X68175000Y-77550000I0J-225000D01*
G01*
G37*
G36*
G01*
X69725000Y-77550000D02*
X69725000Y-78050000D01*
G75*
G02*
X69500000Y-78275000I-225000J0D01*
G01*
X69050000Y-78275000D01*
G75*
G02*
X68825000Y-78050000I0J225000D01*
G01*
X68825000Y-77550000D01*
G75*
G02*
X69050000Y-77325000I225000J0D01*
G01*
X69500000Y-77325000D01*
G75*
G02*
X69725000Y-77550000I0J-225000D01*
G01*
G37*
G36*
G01*
X72050000Y-63975000D02*
X71550000Y-63975000D01*
G75*
G02*
X71325000Y-63750000I0J225000D01*
G01*
X71325000Y-63300000D01*
G75*
G02*
X71550000Y-63075000I225000J0D01*
G01*
X72050000Y-63075000D01*
G75*
G02*
X72275000Y-63300000I0J-225000D01*
G01*
X72275000Y-63750000D01*
G75*
G02*
X72050000Y-63975000I-225000J0D01*
G01*
G37*
G36*
G01*
X72050000Y-65525000D02*
X71550000Y-65525000D01*
G75*
G02*
X71325000Y-65300000I0J225000D01*
G01*
X71325000Y-64850000D01*
G75*
G02*
X71550000Y-64625000I225000J0D01*
G01*
X72050000Y-64625000D01*
G75*
G02*
X72275000Y-64850000I0J-225000D01*
G01*
X72275000Y-65300000D01*
G75*
G02*
X72050000Y-65525000I-225000J0D01*
G01*
G37*
G36*
G01*
X74675000Y-61750000D02*
X74675000Y-62250000D01*
G75*
G02*
X74450000Y-62475000I-225000J0D01*
G01*
X74000000Y-62475000D01*
G75*
G02*
X73775000Y-62250000I0J225000D01*
G01*
X73775000Y-61750000D01*
G75*
G02*
X74000000Y-61525000I225000J0D01*
G01*
X74450000Y-61525000D01*
G75*
G02*
X74675000Y-61750000I0J-225000D01*
G01*
G37*
G36*
G01*
X76225000Y-61750000D02*
X76225000Y-62250000D01*
G75*
G02*
X76000000Y-62475000I-225000J0D01*
G01*
X75550000Y-62475000D01*
G75*
G02*
X75325000Y-62250000I0J225000D01*
G01*
X75325000Y-61750000D01*
G75*
G02*
X75550000Y-61525000I225000J0D01*
G01*
X76000000Y-61525000D01*
G75*
G02*
X76225000Y-61750000I0J-225000D01*
G01*
G37*
G36*
G01*
X78050000Y-62550000D02*
X77550000Y-62550000D01*
G75*
G02*
X77325000Y-62325000I0J225000D01*
G01*
X77325000Y-61875000D01*
G75*
G02*
X77550000Y-61650000I225000J0D01*
G01*
X78050000Y-61650000D01*
G75*
G02*
X78275000Y-61875000I0J-225000D01*
G01*
X78275000Y-62325000D01*
G75*
G02*
X78050000Y-62550000I-225000J0D01*
G01*
G37*
G36*
G01*
X78050000Y-64100000D02*
X77550000Y-64100000D01*
G75*
G02*
X77325000Y-63875000I0J225000D01*
G01*
X77325000Y-63425000D01*
G75*
G02*
X77550000Y-63200000I225000J0D01*
G01*
X78050000Y-63200000D01*
G75*
G02*
X78275000Y-63425000I0J-225000D01*
G01*
X78275000Y-63875000D01*
G75*
G02*
X78050000Y-64100000I-225000J0D01*
G01*
G37*
G36*
G01*
X79650000Y-62575000D02*
X79150000Y-62575000D01*
G75*
G02*
X78925000Y-62350000I0J225000D01*
G01*
X78925000Y-61900000D01*
G75*
G02*
X79150000Y-61675000I225000J0D01*
G01*
X79650000Y-61675000D01*
G75*
G02*
X79875000Y-61900000I0J-225000D01*
G01*
X79875000Y-62350000D01*
G75*
G02*
X79650000Y-62575000I-225000J0D01*
G01*
G37*
G36*
G01*
X79650000Y-64125000D02*
X79150000Y-64125000D01*
G75*
G02*
X78925000Y-63900000I0J225000D01*
G01*
X78925000Y-63450000D01*
G75*
G02*
X79150000Y-63225000I225000J0D01*
G01*
X79650000Y-63225000D01*
G75*
G02*
X79875000Y-63450000I0J-225000D01*
G01*
X79875000Y-63900000D01*
G75*
G02*
X79650000Y-64125000I-225000J0D01*
G01*
G37*
G36*
G01*
X79825000Y-69950000D02*
X79825000Y-69450000D01*
G75*
G02*
X80050000Y-69225000I225000J0D01*
G01*
X80500000Y-69225000D01*
G75*
G02*
X80725000Y-69450000I0J-225000D01*
G01*
X80725000Y-69950000D01*
G75*
G02*
X80500000Y-70175000I-225000J0D01*
G01*
X80050000Y-70175000D01*
G75*
G02*
X79825000Y-69950000I0J225000D01*
G01*
G37*
G36*
G01*
X78275000Y-69950000D02*
X78275000Y-69450000D01*
G75*
G02*
X78500000Y-69225000I225000J0D01*
G01*
X78950000Y-69225000D01*
G75*
G02*
X79175000Y-69450000I0J-225000D01*
G01*
X79175000Y-69950000D01*
G75*
G02*
X78950000Y-70175000I-225000J0D01*
G01*
X78500000Y-70175000D01*
G75*
G02*
X78275000Y-69950000I0J225000D01*
G01*
G37*
G36*
G01*
X79825000Y-68350000D02*
X79825000Y-67850000D01*
G75*
G02*
X80050000Y-67625000I225000J0D01*
G01*
X80500000Y-67625000D01*
G75*
G02*
X80725000Y-67850000I0J-225000D01*
G01*
X80725000Y-68350000D01*
G75*
G02*
X80500000Y-68575000I-225000J0D01*
G01*
X80050000Y-68575000D01*
G75*
G02*
X79825000Y-68350000I0J225000D01*
G01*
G37*
G36*
G01*
X78275000Y-68350000D02*
X78275000Y-67850000D01*
G75*
G02*
X78500000Y-67625000I225000J0D01*
G01*
X78950000Y-67625000D01*
G75*
G02*
X79175000Y-67850000I0J-225000D01*
G01*
X79175000Y-68350000D01*
G75*
G02*
X78950000Y-68575000I-225000J0D01*
G01*
X78500000Y-68575000D01*
G75*
G02*
X78275000Y-68350000I0J225000D01*
G01*
G37*
G36*
G01*
X72850000Y-90375000D02*
X72350000Y-90375000D01*
G75*
G02*
X72125000Y-90150000I0J225000D01*
G01*
X72125000Y-89700000D01*
G75*
G02*
X72350000Y-89475000I225000J0D01*
G01*
X72850000Y-89475000D01*
G75*
G02*
X73075000Y-89700000I0J-225000D01*
G01*
X73075000Y-90150000D01*
G75*
G02*
X72850000Y-90375000I-225000J0D01*
G01*
G37*
G36*
G01*
X72850000Y-91925000D02*
X72350000Y-91925000D01*
G75*
G02*
X72125000Y-91700000I0J225000D01*
G01*
X72125000Y-91250000D01*
G75*
G02*
X72350000Y-91025000I225000J0D01*
G01*
X72850000Y-91025000D01*
G75*
G02*
X73075000Y-91250000I0J-225000D01*
G01*
X73075000Y-91700000D01*
G75*
G02*
X72850000Y-91925000I-225000J0D01*
G01*
G37*
G36*
G01*
X69475000Y-84050000D02*
X69475000Y-84550000D01*
G75*
G02*
X69250000Y-84775000I-225000J0D01*
G01*
X68800000Y-84775000D01*
G75*
G02*
X68575000Y-84550000I0J225000D01*
G01*
X68575000Y-84050000D01*
G75*
G02*
X68800000Y-83825000I225000J0D01*
G01*
X69250000Y-83825000D01*
G75*
G02*
X69475000Y-84050000I0J-225000D01*
G01*
G37*
G36*
G01*
X71025000Y-84050000D02*
X71025000Y-84550000D01*
G75*
G02*
X70800000Y-84775000I-225000J0D01*
G01*
X70350000Y-84775000D01*
G75*
G02*
X70125000Y-84550000I0J225000D01*
G01*
X70125000Y-84050000D01*
G75*
G02*
X70350000Y-83825000I225000J0D01*
G01*
X70800000Y-83825000D01*
G75*
G02*
X71025000Y-84050000I0J-225000D01*
G01*
G37*
M02*
