M48
; DRILL file {KiCad 5.1.9+dfsg1-1~bpo10+1} date Sun Nov  7 18:13:51 2021
; FORMAT={-:-/ absolute / inch / decimal}
; #@! TF.CreationDate,2021-11-07T18:13:51+00:00
; #@! TF.GenerationSoftware,Kicad,Pcbnew,5.1.9+dfsg1-1~bpo10+1
FMAT,2
INCH
T1C0.0118
T2C0.0157
T3C0.0197
T4C0.0394
T5C0.0689
T6C0.1260
T7C0.1260
T8C0.1575
%
G90
G05
T1
X0.7559Y-3.1339
X0.7559Y-3.1654
X0.7559Y-3.1969
X0.7559Y-3.378
X0.7559Y-3.4094
X0.7559Y-3.4409
X0.7913Y-3.1339
X0.7913Y-3.1654
X0.7913Y-3.1969
X0.7913Y-3.378
X0.7913Y-3.4094
X0.7913Y-3.4409
X1.0157Y-1.6772
X1.0157Y-1.7087
X1.0157Y-1.7402
X1.0157Y-1.9213
X1.0157Y-1.9528
X1.0157Y-1.9843
X1.0512Y-1.6772
X1.0512Y-1.7087
X1.0512Y-1.7402
X1.0512Y-1.9213
X1.0512Y-1.9528
X1.0512Y-1.9843
X1.0787Y-2.1102
X1.1457Y-3.1339
X1.1457Y-3.1654
X1.1457Y-3.1969
X1.1457Y-3.378
X1.1457Y-3.4094
X1.1457Y-3.4409
X1.1811Y-3.1339
X1.1811Y-3.1654
X1.1811Y-3.1969
X1.1811Y-3.378
X1.1811Y-3.4094
X1.1811Y-3.4409
X1.2205Y-2.5
X1.2244Y-2.3661
X1.248Y-2.1535
X1.248Y-2.3386
X1.2756Y-2.5
X1.3071Y-2.5
X1.3425Y-2.1535
X1.3583Y-2.2913
X1.4055Y-1.6772
X1.4055Y-1.7087
X1.4055Y-1.7402
X1.4055Y-1.9213
X1.4055Y-1.9528
X1.4055Y-1.9843
X1.4409Y-1.6772
X1.4409Y-1.7087
X1.4409Y-1.7402
X1.4409Y-1.9213
X1.4409Y-1.9528
X1.4409Y-1.9843
X2.2441Y-3.8268
X2.5Y-2.4764
X2.5Y-2.5157
X2.5Y-2.5551
X2.5Y-2.5945
X2.5Y-2.6339
X2.5Y-2.6732
X2.6181Y-2.8307
X2.6339Y-3.063
X2.6339Y-3.126
X2.6378Y-2.5512
X2.6535Y-2.8425
X2.6732Y-2.3898
X2.6732Y-2.4291
X2.6732Y-2.4685
X2.6732Y-2.5079
X2.6772Y-3.2244
X2.6772Y-3.3189
X2.689Y-3.0
X2.689Y-3.2559
X2.6929Y-2.8386
X2.7087Y-2.3898
X2.7087Y-2.4291
X2.7087Y-2.4685
X2.7087Y-2.5079
X2.7362Y-3.1654
X2.7421Y-2.1201
X2.752Y-1.6024
X2.7598Y-2.4291
X2.8031Y-2.9882
X2.8071Y-2.9331
X2.8189Y-2.1181
X2.8465Y-3.1181
X2.8766Y-3.1368
X2.9055Y-3.1535
X2.9252Y-2.3543
X2.9279Y-2.8039
X2.9291Y-2.8543
X2.937Y-3.437
X2.9724Y-3.4291
X2.9843Y-2.3593
X2.9843Y-2.8268
X3.0089Y-2.8496
X3.0139Y-2.348
X3.0157Y-3.2795
X3.0197Y-3.0157
X3.0472Y-2.7205
X3.0512Y-2.3031
X3.0512Y-3.2795
X3.063Y-2.1181
X3.0709Y-2.7126
X3.0827Y-3.3898
X3.126Y-3.1732
X3.1339Y-2.7835
X3.1345Y-2.9486
X3.1378Y-3.3701
X3.1575Y-2.9724
X3.1614Y-2.6417
X3.1654Y-2.9252
X3.1811Y-3.4055
X3.1811Y-3.5354
X3.185Y-3.0472
X3.2244Y-3.315
X3.2323Y-2.8189
X3.2677Y-3.2087
X3.2717Y-2.5669
X3.2835Y-3.4055
X3.2835Y-3.4331
X3.2854Y-2.6417
X3.311Y-3.0433
X3.315Y-3.1732
X3.3189Y-2.7126
X3.3189Y-2.7402
X3.3228Y-2.5748
X3.3504Y-3.185
X3.378Y-2.9419
X3.3957Y-2.5394
X3.3976Y-2.4213
X3.4055Y-3.3386
X3.4055Y-3.3661
X3.4311Y-2.7382
X3.4339Y-3.0038
X3.4449Y-3.2283
X3.4528Y-3.1614
X3.454Y-3.1194
X3.4567Y-2.4961
X3.4646Y-2.9646
X3.491Y-3.0734
X3.5748Y-2.5748
X3.7087Y-2.5236
T2
X0.6811Y-3.2874
X0.748Y-2.2047
X0.7559Y-2.3071
X0.7559Y-2.3858
X0.7559Y-2.4646
X0.7559Y-2.5433
X0.7559Y-2.622
X0.7559Y-2.7008
X0.7559Y-2.7795
X0.7559Y-2.8583
X0.8346Y-2.3071
X0.8346Y-2.3858
X0.8346Y-2.4646
X0.8346Y-2.5433
X0.8346Y-2.622
X0.8346Y-2.7008
X0.8346Y-2.7795
X0.8346Y-2.8583
X0.8425Y-3.7756
X0.8425Y-3.8228
X0.8898Y-3.7756
X0.9055Y-2.2047
X0.9134Y-2.3071
X0.9134Y-2.3858
X0.9134Y-2.4646
X0.9134Y-2.5433
X0.9134Y-2.622
X0.9134Y-2.7008
X0.9134Y-2.7795
X0.9134Y-2.8583
X0.937Y-3.7756
X1.0039Y-2.4331
X1.0039Y-2.622
X1.0039Y-2.8189
X1.0591Y-3.2795
X1.0827Y-2.4331
X1.0827Y-2.622
X1.0827Y-2.8189
X1.0945Y-3.8701
X1.2756Y-1.7874
X1.2835Y-2.8228
X1.2835Y-2.8622
X1.2953Y-4.0394
X1.315Y-2.0512
X1.3543Y-2.0512
X1.3819Y-3.315
X1.3819Y-3.3622
X1.3819Y-3.4094
X1.3819Y-3.5
X1.3819Y-3.5472
X1.3819Y-3.5945
X1.3819Y-3.6417
X1.3819Y-3.8268
X1.3819Y-3.874
X1.3819Y-3.9213
X1.3937Y-2.0512
X1.3937Y-2.2795
X1.3937Y-2.3189
X1.3937Y-2.3583
X1.3937Y-2.3976
X1.4134Y-2.0984
X1.4291Y-1.1535
X1.4291Y-3.315
X1.4291Y-3.3622
X1.4291Y-3.4094
X1.4291Y-3.5
X1.4291Y-3.5472
X1.4291Y-3.5945
X1.4291Y-3.6417
X1.4291Y-3.8268
X1.4291Y-3.874
X1.4291Y-3.9213
X1.4331Y-2.2795
X1.4331Y-2.3189
X1.4331Y-2.3583
X1.4331Y-2.3976
X1.4449Y-4.0906
X1.4528Y-2.0591
X1.4528Y-2.0984
X1.4528Y-2.1378
X1.4528Y-2.1772
X1.4528Y-2.2165
X1.4724Y-3.0945
X1.4764Y-3.315
X1.4764Y-3.3622
X1.4764Y-3.4094
X1.4764Y-3.5
X1.4764Y-3.5472
X1.4764Y-3.5945
X1.4764Y-3.6417
X1.4764Y-3.8268
X1.4764Y-3.874
X1.4764Y-3.9213
X1.4921Y-2.0591
X1.4921Y-2.0984
X1.4921Y-2.1378
X1.4921Y-2.1772
X1.4921Y-2.2165
X1.5236Y-3.315
X1.5236Y-3.3622
X1.5236Y-3.4094
X1.5236Y-3.8268
X1.5236Y-3.874
X1.5236Y-3.9213
X1.5315Y-2.0591
X1.5315Y-2.0984
X1.5315Y-2.1378
X1.5315Y-2.1772
X1.5315Y-2.2165
X1.5669Y-2.2835
X1.5669Y-2.3189
X1.5669Y-2.3543
X1.5669Y-2.3898
X1.5669Y-2.4252
X1.5709Y-2.0591
X1.5709Y-2.0984
X1.5709Y-2.1378
X1.5709Y-2.1772
X1.5709Y-2.2165
X1.5866Y-2.9134
X1.5866Y-3.315
X1.5906Y-2.6063
X1.6024Y-2.2835
X1.6024Y-2.3189
X1.6024Y-2.3543
X1.6024Y-2.3898
X1.6024Y-2.4252
X1.6102Y-2.0591
X1.6102Y-2.0984
X1.6102Y-2.1378
X1.6102Y-2.1772
X1.6102Y-2.2165
X1.6378Y-2.2835
X1.6378Y-2.3189
X1.6378Y-2.3543
X1.6378Y-2.3898
X1.6378Y-2.4252
X1.6732Y-2.2835
X1.6732Y-2.3189
X1.6732Y-2.3543
X1.6732Y-2.3898
X1.6732Y-2.4252
X1.685Y-3.0669
X1.7165Y-2.6299
X1.7244Y-1.6575
X1.7244Y-1.7047
X1.7598Y-4.0906
X1.7717Y-1.6575
X1.7717Y-1.7047
X1.9331Y-1.6575
X1.9331Y-1.7047
X1.9331Y-1.752
X1.9331Y-1.7992
X1.9803Y-1.6575
X1.9803Y-1.7047
X1.9803Y-1.752
X1.9803Y-1.7992
X2.0276Y-1.6575
X2.0276Y-1.7047
X2.0276Y-1.752
X2.0276Y-1.7992
X2.0433Y-2.8819
X2.1181Y-3.7047
X2.1693Y-3.6969
X2.1693Y-3.7402
X2.1693Y-3.7874
X2.1693Y-3.8346
X2.2165Y-2.5866
X2.2402Y-1.6575
X2.2402Y-1.7047
X2.2402Y-1.752
X2.2402Y-1.7992
X2.2677Y-2.2795
X2.2677Y-2.315
X2.2677Y-2.3504
X2.2677Y-2.3858
X2.2677Y-2.4213
X2.2835Y-1.9055
X2.2874Y-1.6575
X2.2874Y-1.7047
X2.2874Y-1.752
X2.2874Y-1.7992
X2.3031Y-2.2795
X2.3031Y-2.315
X2.3031Y-2.3504
X2.3031Y-2.3858
X2.3031Y-2.4213
X2.3031Y-2.9803
X2.315Y-2.626
X2.315Y-3.9528
X2.3346Y-1.6575
X2.3346Y-1.7047
X2.3346Y-1.752
X2.3346Y-1.7992
X2.3386Y-2.2795
X2.3386Y-2.315
X2.3386Y-2.3504
X2.3386Y-2.3858
X2.3386Y-2.4213
X2.3386Y-4.0039
X2.3465Y-3.8701
X2.3583Y-3.9291
X2.374Y-2.2795
X2.374Y-2.315
X2.374Y-2.3504
X2.374Y-2.3858
X2.374Y-2.4213
X2.3858Y-3.1496
X2.3937Y-3.6654
X2.3937Y-3.7126
X2.3937Y-3.7598
X2.4094Y-2.2795
X2.4094Y-2.315
X2.4094Y-2.3504
X2.4094Y-2.3858
X2.4094Y-2.4213
X2.4252Y-3.8701
X2.4291Y-3.378
X2.4291Y-3.4252
X2.4291Y-3.4724
X2.4409Y-3.6654
X2.4409Y-3.7126
X2.4409Y-3.7598
X2.4764Y-3.378
X2.4764Y-3.4252
X2.4764Y-3.4724
X2.4882Y-3.6654
X2.4882Y-3.7126
X2.4882Y-3.7598
X2.5Y-1.6575
X2.5Y-1.7047
X2.5Y-1.752
X2.5Y-1.7992
X2.5039Y-3.9921
X2.5039Y-4.0315
X2.5236Y-3.378
X2.5236Y-3.4252
X2.5236Y-3.4724
X2.5354Y-3.6654
X2.5354Y-3.7126
X2.5354Y-3.7598
X2.5472Y-1.6575
X2.5472Y-1.7047
X2.5472Y-1.752
X2.5472Y-1.7992
X2.5551Y-2.0906
X2.5551Y-3.1949
X2.5551Y-3.2343
X2.5591Y-1.9055
X2.5709Y-3.378
X2.5709Y-3.4252
X2.5709Y-3.4724
X2.5945Y-1.6575
X2.5945Y-1.7047
X2.5945Y-1.752
X2.5945Y-1.7992
X2.5945Y-3.1949
X2.5945Y-3.2343
X2.6024Y-2.6693
X2.6063Y-3.9528
X2.6102Y-2.1575
X2.6378Y-2.2244
X2.6378Y-2.2638
X2.6378Y-2.3031
X2.6496Y-2.126
X2.6575Y-2.1772
X2.6772Y-2.2244
X2.6772Y-2.2638
X2.6772Y-2.3031
X2.6772Y-2.3425
X2.6969Y-1.8209
X2.6969Y-1.8602
X2.6969Y-1.8996
X2.6969Y-1.939
X2.6969Y-1.9783
X2.6969Y-2.0177
X2.6969Y-2.0571
X2.6969Y-2.0965
X2.6969Y-2.1358
X2.7008Y-2.1772
X2.7165Y-2.2244
X2.7165Y-2.2638
X2.7165Y-2.3031
X2.7165Y-2.3425
X2.7362Y-3.8622
X2.7441Y-1.7756
X2.7677Y-3.5709
X2.7677Y-3.6102
X2.8071Y-3.5709
X2.8071Y-3.6102
X2.8189Y-2.3701
X2.8228Y-2.8268
X2.8228Y-2.874
X2.8346Y-2.9685
X2.8622Y-2.3701
X2.8622Y-2.4173
X2.874Y-2.8268
X2.874Y-2.874
X2.8858Y-3.4488
X2.9016Y-1.815
X2.9055Y-4.0276
X2.9055Y-4.0748
X2.9134Y-2.9685
X2.9252Y-2.2205
X2.9291Y-3.5
X2.9528Y-4.0276
X2.9528Y-4.0748
X2.9724Y-3.8661
X2.9921Y-2.9685
X3.0354Y-3.3701
X3.0866Y-3.0551
X3.0945Y-2.3898
X3.1063Y-1.8189
X3.1299Y-3.0551
X3.1378Y-2.3071
X3.1417Y-4.0197
X3.1417Y-4.0669
X3.1535Y-2.248
X3.1772Y-2.8465
X3.1772Y-3.2087
X3.189Y-4.0197
X3.189Y-4.0669
X3.2402Y-2.2835
X3.2913Y-3.7598
X3.3268Y-3.7598
X3.3346Y-2.2835
X3.3701Y-4.0197
X3.3701Y-4.0669
X3.4173Y-4.0197
X3.4173Y-4.0669
X3.4449Y-2.9173
X3.5591Y-3.3386
X3.5669Y-2.6772
X3.5669Y-2.8465
X3.6575Y-2.8937
T3
X0.6535Y-1.7323
X0.6535Y-3.9764
X0.6812Y-1.6655
X0.6812Y-1.7991
X0.6812Y-3.9096
X0.6812Y-4.0432
X0.748Y-1.6378
X0.748Y-1.8268
X0.748Y-3.8819
X0.748Y-4.0709
X0.8148Y-1.6655
X0.8148Y-1.7991
X0.8148Y-3.9096
X0.8148Y-4.0432
X0.8425Y-1.7323
X0.8425Y-3.9764
X3.4882Y-1.7323
X3.4882Y-3.9764
X3.5159Y-1.6655
X3.5159Y-1.7991
X3.5159Y-3.9096
X3.5159Y-4.0432
X3.5827Y-1.6378
X3.5827Y-1.8268
X3.5827Y-3.8819
X3.5827Y-4.0709
X3.6495Y-1.6655
X3.6495Y-1.7991
X3.6495Y-3.9096
X3.6495Y-4.0432
X3.6772Y-1.7323
X3.6772Y-3.9764
T4
X2.9449Y-1.6535
X3.0449Y-1.6535
X3.1449Y-1.6535
X3.2449Y-1.6535
X3.5394Y-1.9882
X3.5394Y-2.126
X3.6693Y-3.3898
X3.6693Y-3.4898
X3.6693Y-3.5898
X3.6693Y-3.6898
T5
X1.0433Y-2.3307
X1.0433Y-2.5276
X1.0433Y-2.7244
X1.0433Y-2.9213
T6
X0.748Y-1.7323
X0.748Y-3.9764
X3.5827Y-1.7323
X3.5827Y-3.9764
T7
X0.9685Y-3.1299
X0.9685Y-3.4449
X1.2283Y-1.6732
X1.2283Y-1.9882
T8
X1.3976Y-2.8898
X2.5Y-2.8898
T0
M30
